<svg width="173" height="52" fill="none" xmlns="http://www.w3.org/2000/svg"><path d="M3.191 16.835c.62 1.322 1.452 2.38 2.493 3.173a11.699 11.699 0 003.454 1.813c1.261.415 2.58.624 3.954.624 2.101 0 4.042-.425 5.818-1.274v-4.164c-1.222 1.096-2.942 1.643-5.16 1.643a8.796 8.796 0 01-2.593-.382 7.643 7.643 0 01-2.264-1.119c-.679-.49-1.217-1.147-1.619-1.968-.402-.82-.602-1.76-.602-2.818 0-2.228.693-3.914 2.078-5.056 1.384-1.142 3.051-1.713 5-1.713 1.987 0 3.66.52 5.017 1.559V3.096c-1.72-.85-3.632-1.275-5.733-1.275-1.376 0-2.694.212-3.954.637a10.907 10.907 0 00-3.425 1.883C4.633 5.173 3.81 6.282 3.19 7.67c-.621 1.389-.932 2.95-.932 4.688.002 1.664.313 3.156.933 4.478zm47.583-5.015a39.8 39.8 0 00-.085-2.72l9.343 12.946h4.042V2.217h-4.3v10.226c0 1.001.03 1.907.086 2.72L50.516 2.217h-4.04v19.829h4.3V11.82h-.002zm18.101-1.501c.545.812 1.222 1.43 2.034 1.856.812.425 1.691.82 2.636 1.19.946.368 1.825.68 2.637.934.812.255 1.49.595 2.034 1.02.546.425.818.921.818 1.487 0 1.266-1.252 1.898-3.755 1.898-2.599 0-4.968-.698-7.109-2.095v4.05c2.16 1.19 4.633 1.785 7.424 1.785 1.108 0 2.111-.1 3.009-.298a8.55 8.55 0 002.465-.948 4.477 4.477 0 001.734-1.814c.41-.773.615-1.7.615-2.775 0-1.095-.272-2.058-.817-2.89-.545-.83-1.222-1.458-2.034-1.883a26.31 26.31 0 00-2.637-1.19 31.52 31.52 0 00-2.636-.905c-.812-.236-1.491-.552-2.035-.948-.545-.396-.817-.86-.817-1.389 0-1.19 1.09-1.803 3.267-1.84 2.426-.038 4.49.547 6.191 1.755V3.351c-1.816-1.02-3.984-1.53-6.505-1.53-2.103 0-3.85.481-5.246 1.445-1.395.963-2.092 2.36-2.092 4.192.001 1.095.273 2.048.819 2.86zm31.14 4.05c0 2.833-1.51 4.249-4.529 4.249-3 0-4.5-1.416-4.5-4.25V2.218h-4.3v12.38c0 1.133.163 2.153.488 3.059.325.906.764 1.652 1.318 2.238a7.373 7.373 0 001.978 1.474 8.846 8.846 0 002.394.836c.83.16 1.704.241 2.622.241.917 0 1.792-.08 2.623-.241a8.74 8.74 0 002.394-.836 7.373 7.373 0 001.978-1.474c.554-.584.993-1.33 1.318-2.238.325-.906.487-1.926.487-3.06V2.218h-4.271V14.37zm19.805-1.841l-6.878-10.311h-3.984v19.829h4.3V9.809l5.302 7.988h2.493l5.302-7.96v12.21h4.3V2.218h-3.984l-6.851 10.311zm15.707 9.518h14.302v-3.74h-10.004v-4.418h8.971v-3.71h-8.971V5.956h9.831V2.217h-14.131v19.829h.002zm22.586-6.939h3.152l5.417 6.939h4.958l-5.991-7.478c2.924-.925 4.385-2.89 4.385-5.893 0-1.208-.225-2.246-.673-3.115-.45-.868-1.07-1.54-1.864-2.01a8.819 8.819 0 00-2.522-1.02 12.8 12.8 0 00-2.91-.311h-8.254v19.828h4.3v-6.94h.002zm4.156-9.151c.993 0 1.805.226 2.436.68.631.454.946 1.16.946 2.124 0 .945-.32 1.649-.961 2.111-.641.463-1.448.694-2.423.694h-4.156V5.956h4.158zM6.76 43.588h9.172l1.462 3.71h4.442l-8.17-19.829H9.023L.827 47.298h4.441l1.491-3.71zm4.585-12.181c.095.51.24 1.03.429 1.558l2.809 7.11H8.105l2.78-7.11c.193-.453.345-.973.46-1.558zm8.571-.114h6.161v16.005h4.271V31.293h6.162V27.47H19.916v3.824zm17.339 0h6.162v16.005h4.27V31.293h6.163V27.47H37.252v3.824h.002zm45.232 9.064h3.153l5.416 6.94h4.958l-5.99-7.479c2.923-.924 4.385-2.89 4.385-5.892 0-1.209-.224-2.247-.674-3.116-.45-.868-1.07-1.54-1.863-2.01a8.827 8.827 0 00-2.522-1.02 12.799 12.799 0 00-2.91-.31h-8.254v19.828h4.3v-6.941h.001zm4.157-9.149c.993 0 1.805.226 2.436.68.63.454.945 1.16.945 2.124 0 .945-.32 1.649-.96 2.111-.642.463-1.449.694-2.423.694h-4.156v-5.609h4.157zm16.078 5.864c0-1.002-.029-1.907-.086-2.72l9.344 12.946h4.042V27.469h-4.3v10.226c0 1.001.029 1.907.085 2.72l-9.343-12.946h-4.042v19.829h4.3V37.072zm17.598 10.226h14.301v-3.74h-10.003V39.14h8.971v-3.71h-8.971v-4.22h9.831v-3.74h-14.131v19.828h.002zm27.774-7.026l7.825-12.805h-4.844l-5.13 8.896-5.131-8.896h-4.844l7.853 12.805v7.024h4.271v-7.024zm9.157-4.702c.545.813 1.223 1.432 2.035 1.857.812.425 1.691.82 2.636 1.19.945.368 1.824.68 2.636.934.812.255 1.491.595 2.035 1.02.545.425.817.921.817 1.487 0 1.266-1.251 1.898-3.754 1.898-2.599 0-4.969-.698-7.109-2.095v4.05c2.159 1.19 4.633 1.785 7.423 1.785 1.108 0 2.112-.099 3.009-.298a8.559 8.559 0 002.466-.948 4.476 4.476 0 001.733-1.814c.411-.773.616-1.7.616-2.775 0-1.095-.272-2.058-.817-2.89-.546-.83-1.223-1.457-2.035-1.882a26.343 26.343 0 00-2.636-1.19 31.64 31.64 0 00-2.637-.906c-.812-.236-1.491-.552-2.034-.948-.546-.396-.817-.86-.817-1.389 0-1.19 1.089-1.803 3.267-1.84 2.426-.038 4.489.547 6.191 1.755v-3.965c-1.816-1.02-3.984-1.53-6.506-1.53-2.103 0-3.85.481-5.245 1.445-1.395.964-2.093 2.36-2.093 4.193.002 1.091.275 2.044.819 2.857z" fill="#fff"/><path fill-rule="evenodd" clip-rule="evenodd" d="M71.11 47.656c-2.913 2.247-5.515 3.35-5.503 3.396-.014-.05-2.597-1.106-5.533-3.372-4.513-3.484-4.185-7.619-4.185-7.619v-12.87c5.338-2.604 14.073-2.601 19.404-.002v12.857s.33 4.13-4.182 7.61zm.24-7.736V29.772c-3.161-1.53-8.345-1.531-11.511.002V39.93s-.195 2.434 2.482 4.485c1.74 1.334 3.274 1.957 3.283 1.986-.009-.028 1.537-.677 3.263-2 2.68-2.05 2.483-4.481 2.483-4.481zM32.99 15.542c-4.323 0-7.827-3.466-7.827-7.739 0-4.272 3.503-7.738 7.827-7.738 4.323 0 7.827 3.464 7.827 7.738 0 4.275-3.505 7.739-7.827 7.739zm-.088-11.5c-2.1 0-3.805 1.685-3.805 3.763 0 2.079 1.704 3.763 3.805 3.763 2.102 0 3.806-1.684 3.806-3.763 0-2.078-1.703-3.763-3.806-3.763z" fill="#fff"/><path d="M41.16 22.889a1.97 1.97 0 01-1.05-.303 13.336 13.336 0 00-7.12-2.043c-2.502 0-4.936.69-7.04 1.994a1.97 1.97 0 01-2.692-.6 1.902 1.902 0 01.61-2.648 17.298 17.298 0 019.124-2.585c3.282 0 6.47.916 9.225 2.65a1.9 1.9 0 01.592 2.651 1.97 1.97 0 01-1.649.884z" fill="#fff"/></svg>