<?xml version="1.0" encoding="utf-8"?><svg xmlns="http://www.w3.org/2000/svg" xmlns:xlink="http://www.w3.org/1999/xlink"><symbol viewBox="0 0 512 512" id="arrow_right" xmlns="http://www.w3.org/2000/svg"><path d="M80 271.996h319.192L276.968 388.412c-6.4 6.096-6.648 16.224-.552 22.624 6.088 6.392 16.216 6.648 22.624.552l139.584-132.96c6.04-6.048 9.376-14.08 9.376-22.632 0-8.544-3.336-16.584-9.656-22.896L299.032 100.412A15.929 15.929 0 00288 95.996a15.958 15.958 0 00-11.592 4.968c-6.096 6.4-5.848 16.52.552 22.616l122.736 116.416H80c-8.832 0-16 7.168-16 16s7.168 16 16 16z"/></symbol><symbol viewBox="0 -46 417.813 417" id="check" xmlns="http://www.w3.org/2000/svg"><path d="M159.988 318.582c-3.988 4.012-9.43 6.25-15.082 6.25s-11.094-2.238-15.082-6.25L9.375 198.113c-12.5-12.5-12.5-32.77 0-45.246l15.082-15.086c12.504-12.5 32.75-12.5 45.25 0l75.2 75.203L348.104 9.781c12.504-12.5 32.77-12.5 45.25 0l15.082 15.086c12.5 12.5 12.5 32.766 0 45.246zm0 0"/></symbol><symbol viewBox="0 0 512 512" id="coins" xmlns="http://www.w3.org/2000/svg"><path d="M256 386c-5.52 0-10 4.48-10 10s4.48 10 10 10 10-4.48 10-10-4.48-10-10-10z"/><path d="M469.087 61.37C444.479 51.459 412.485 46 379 46s-65.479 5.459-90.087 15.37C274.371 67.227 263.268 74.385 256 82.417c-7.268-8.032-18.371-15.189-32.913-21.046C198.479 51.459 166.485 46 133 46s-65.479 5.459-90.087 15.37C15.24 72.516 0 88.366 0 106v240c0 17.634 15.24 33.484 42.913 44.63C65.8 399.848 95.078 405.208 126 405.914V406c0 34.206 55.888 60 130 60s130-25.794 130-60v-.086c30.922-.706 60.2-6.066 83.087-15.284C496.76 379.484 512 363.634 512 346V106c0-17.634-15.24-33.484-42.913-44.63zM492 286c0 8.537-11.643 18.529-30.385 26.078-20.285 8.17-47.519 13.113-75.615 13.823V286l-.002-.086c30.923-.705 60.201-6.065 83.09-15.284 8.983-3.618 16.646-7.734 22.913-12.244L492 286zM246 166c0 8.537-11.643 18.529-30.385 26.078C193.648 200.926 163.536 206 133 206s-60.648-5.074-82.615-13.922C31.643 184.529 20 174.537 20 166v-27.614c6.267 4.51 13.93 8.626 22.913 12.244C67.521 160.541 99.515 166 133 166s65.479-5.459 90.087-15.37c8.983-3.618 16.646-7.734 22.913-12.244V166zM42.913 210.63C67.521 220.541 99.515 226 133 226s65.479-5.459 90.087-15.37c8.983-3.618 16.646-7.734 22.913-12.244v27.791c-25.87.876-50.68 5.122-70.747 12.189-20.127 7.089-34.61 16.542-42.486 27.631-30.456-.026-60.471-5.094-82.382-13.919C31.643 244.529 20 234.537 20 226v-27.614c6.267 4.51 13.93 8.626 22.913 12.244zM20 258.386c6.267 4.51 13.93 8.626 22.913 12.244 22.888 9.218 52.167 14.578 83.09 15.284l-.002.086v39.901c-28.097-.71-55.33-5.653-75.615-13.823C31.643 304.529 20 294.537 20 286v-27.614zm127.058 22.701C154.469 263.84 197.244 246 256 246s101.531 17.84 108.934 35.067c.718 1.681 1.066 3.294 1.066 4.933 0 8.792-10.839 18.558-28.995 26.123C315.529 321.072 286.761 326 256 326s-59.529-4.928-81.005-13.877C156.839 304.558 146 294.792 146 286c0-1.639.349-3.252 1.058-4.913zM492 226c0 8.537-11.643 18.529-30.385 26.078-21.91 8.825-51.924 13.893-82.379 13.919-7.87-11.083-22.355-20.54-42.489-27.631-20.067-7.068-44.877-11.313-70.747-12.189v-27.791c6.267 4.51 13.93 8.626 22.913 12.244C313.521 220.541 345.515 226 379 226s65.479-5.459 90.087-15.37c8.983-3.618 16.646-7.734 22.913-12.244V226zm0-60c0 8.537-11.643 18.529-30.385 26.078C439.648 200.926 409.536 206 379 206s-60.648-5.074-82.615-13.922C277.643 184.529 266 174.537 266 166v-27.614c6.267 4.51 13.93 8.626 22.913 12.244C313.521 160.541 345.515 166 379 166s65.479-5.459 90.087-15.37c8.983-3.618 16.646-7.734 22.913-12.244V166zM296.385 79.922C318.352 71.074 348.464 66 379 66s60.648 5.074 82.615 13.922C480.357 87.471 492 97.463 492 106s-11.643 18.529-30.385 26.078C439.648 140.926 409.536 146 379 146s-60.648-5.074-82.615-13.922C277.643 124.529 266 114.537 266 106s11.643-18.529 30.385-26.078zm-246 0C72.352 71.074 102.464 66 133 66s60.648 5.074 82.615 13.922C234.357 87.471 246 97.463 246 106s-11.643 18.529-30.385 26.078C193.648 140.926 163.536 146 133 146s-60.648-5.074-82.615-13.922C31.643 124.529 20 114.537 20 106s11.643-18.529 30.385-26.078zm0 292.156C31.643 364.529 20 354.537 20 346v-27.614c6.267 4.51 13.93 8.626 22.913 12.244C65.8 339.848 95.078 345.208 126 345.914v39.988c-28.097-.711-55.33-5.653-75.615-13.824zm286.62 60.045C315.529 441.072 286.761 446 256 446s-59.529-4.928-81.005-13.877C156.839 424.558 146 414.792 146 406v-27.031a88.108 88.108 0 007.544 4.874c15.529 8.986 36.658 15.633 61.104 19.221.493.072.981.107 1.465.107 4.88 0 9.151-3.577 9.881-8.549.802-5.464-2.978-10.544-8.441-11.346C171.078 376.453 146 358.979 146 346v-27.12C168.634 335.442 208.587 346 256 346s87.366-10.558 110-27.12V346c0 12.979-25.078 30.453-71.553 37.276-5.464.802-9.244 5.882-8.441 11.346.73 4.973 5.001 8.549 9.881 8.549.483 0 .973-.035 1.465-.107 24.445-3.588 45.574-10.234 61.104-19.221a88.266 88.266 0 007.544-4.874V406c0 8.792-10.839 18.558-28.995 26.123zm124.61-60.045c-20.285 8.17-47.519 13.113-75.615 13.823v-39.988c30.922-.706 60.2-6.066 83.087-15.284 8.983-3.618 16.646-7.734 22.913-12.244V346c0 8.537-11.643 18.529-30.385 26.078z"/></symbol><symbol viewBox="0 0 512 512" id="night" xmlns="http://www.w3.org/2000/svg"><path d="M400.714 299.946c11.406-8.842 18.2-22.636 18.2-37.002 0-13.527-5.815-26.202-15.832-35.057 1.936-15.119-3.232-28.696-14.44-37.184-8.164-6.184-18.292-8.67-28.209-7.34-3.688-28.283-27.981-50.195-57.304-50.195-6.122 0-12.076.932-17.778 2.778a61.682 61.682 0 00-40.557-15.25c-26.595 0-49.87 17.035-58.246 41.552-8.404.342-16.453 2.394-23.703 5.937-.936-55.492 19.43-109.661 57.232-150.875A9.998 9.998 0 00211.591.614c-28.32 3.18-55.694 11.403-81.366 24.441-42.247 21.475-76.758 54.564-99.803 95.689-2.7 4.818-.983 10.912 3.835 13.612 4.818 2.701 10.913.982 13.612-3.835 21.102-37.657 52.714-67.962 91.414-87.636 15.638-7.942 31.962-13.935 48.766-17.916-33.084 45.67-49.041 101.986-44.463 158.647-.2.251-.411.49-.607.745-10.807 14.064-14.461 32.075-10.571 50.695-15.036 5.241-25.852 19.541-25.852 36.317 0 21.202 17.278 38.452 38.516 38.452h47.489c45.045 58.281 114.956 92.254 188.12 92.47-13.109 11.217-27.555 20.853-43.166 28.783-28.762 14.611-59.405 22.509-91.205 23.608-1.231-26.025-20.925-47.306-46.261-51.038-6.352-18.64-24.237-31.889-44.49-31.889-1.463 0-2.927.068-4.384.204-9.976-16.862-28.111-27.384-48.169-27.384-16.245 0-31.644 7.175-42.175 19.188a219.368 219.368 0 01-17.004-27.905c-19.752-38.683-27.446-81.85-22.25-124.833.663-5.483-3.245-10.465-8.727-11.128a9.995 9.995 0 00-11.128 8.727c-5.675 46.947 2.726 94.089 24.294 136.329a239.511 239.511 0 0015.869 26.615c-14.637 7.215-24.731 22.279-24.731 39.656 0 1.781.104 3.547.31 5.289C6.435 426.825.007 441.381.007 456.593c0 30.248 24.64 54.856 54.927 54.856h137.164c23.795 0 44.047-15.37 51.355-36.681 35.65-.75 71.145-9.617 103.121-25.86 25.64-13.023 48.407-30.278 67.669-51.285a10.003 10.003 0 001.543-11.291 9.995 9.995 0 00-10.033-5.404c-70.492 7.934-140.439-19.048-187.191-71.104h156.45a38.267 38.267 0 0025.702-9.878zM192.099 491.45H54.935c-19.259 0-34.928-15.637-34.928-34.856 0-11.208 5.213-21.452 14.302-28.103a9.999 9.999 0 003.718-10.786 23.854 23.854 0 01-.872-6.476c0-13.34 10.875-24.194 24.242-24.194.542 0 1.083.025 1.625.048a10.001 10.001 0 009.015-4.886c6.453-10.868 18.32-17.619 30.971-17.619 14.685 0 27.764 8.765 33.322 22.328a10 10 0 0011.916 5.848 27.462 27.462 0 017.315-.997c13.219 0 24.676 9.806 26.651 22.81a10 10 0 009.887 8.499c18.9 0 34.276 15.345 34.276 34.206-.001 18.846-15.377 34.178-34.276 34.178zm-47.025-201.626c-10.21 0-18.516-8.278-18.516-18.453 0-10.174 8.306-18.452 18.516-18.452a10 10 0 009.374-13.482c-5.916-15.926-4.316-31.559 4.392-42.891 7.111-9.255 17.916-14.358 30.102-14.358 1.407 0 2.834.068 4.275.206a10.002 10.002 0 0010.774-8.08c3.719-19.481 20.878-33.62 40.802-33.62a41.602 41.602 0 0121.297 5.891c-12.92 10.831-20.752 27.012-20.752 44.266 0 5.523 4.477 10 10 10 5.522 0 10-4.477 10-10 0-14.478 8.453-27.8 21.554-34.053.103-.044.208-.082.31-.129 4.982-2.324 10.341-3.503 15.927-3.503 20.838 0 37.79 16.905 37.79 37.685 0 1.669-.105 3.331-.321 5.082a10 10 0 0014.968 9.861c6.818-3.982 15.063-3.647 21.002.851 6.27 4.749 8.406 13.096 5.859 22.9a9.999 9.999 0 004.206 10.883c7.69 5.03 12.282 13.447 12.282 22.516 0 8.431-3.89 16.217-10.671 21.362-.26.197-.509.406-.748.627a18.327 18.327 0 01-12.482 4.891zm142.218-220.6l29.784 16.212 16.221 29.715a9.998 9.998 0 008.773 5.208h.004a10 10 0 008.774-5.203l16.249-29.719 29.788-16.214a10.001 10.001 0 00-.006-17.57l-29.784-16.186-16.246-29.714A10 10 0 00342.075.55h-.004a10 10 0 00-8.773 5.208l-16.22 29.712-29.78 16.184a9.999 9.999 0 00-.006 17.57zm41.927-17.589a9.998 9.998 0 004.002-3.995l8.86-16.232 8.879 16.238a10.008 10.008 0 003.999 3.989l16.216 8.812-16.222 8.83a9.998 9.998 0 00-3.993 3.986l-8.879 16.238-8.86-16.232a10.008 10.008 0 00-3.996-3.992l-16.222-8.83zm177.562 87.812l-29.789-16.214-16.248-29.719a10.001 10.001 0 00-8.774-5.203h-.003a10 10 0 00-8.774 5.208l-16.221 29.715-29.785 16.212a10 10 0 00.007 17.57l29.78 16.184 16.219 29.711a9.999 9.999 0 008.774 5.208h.002c3.656 0 7.021-1.995 8.775-5.203L476.99 173.2l29.784-16.185a10 10 0 00.007-17.568zm-41.926 17.588a10.004 10.004 0 00-4 3.989l-8.878 16.238-8.86-16.232a9.995 9.995 0 00-4.003-3.995l-16.216-8.812 16.223-8.83a10.001 10.001 0 003.996-3.992l8.86-16.232 8.878 16.238a10.01 10.01 0 003.993 3.986l16.223 8.83z"/><path d="M16.698 175.526c1.453.739 3 1.089 4.526 1.089 3.643 0 7.156-1.999 8.921-5.468l.029-.057c2.504-4.923.529-10.915-4.394-13.418-4.922-2.504-10.957-.515-13.461 4.408s-.543 10.943 4.379 13.446z"/></symbol><symbol viewBox="0 0 512 512" id="phone-call" xmlns="http://www.w3.org/2000/svg"><path d="M129.038 0c-5.523 0-10.001 4.479-10.001 10.001 0 5.523 4.478 10.001 10.001 10.001 56.493 0 102.453 47.153 102.453 105.115 0 5.523 4.479 10.001 10.001 10.001 5.523 0 10.001-4.479 10.001-10.001C251.494 56.127 196.56 0 129.038 0z"/><path d="M129.005 47.447c-5.523 0-10.001 4.479-10.001 10.001 0 5.523 4.478 10.001 10.001 10.001 30.935 0 56.102 25.869 56.102 57.666 0 5.523 4.479 10.001 10.001 10.001 5.523 0 10.001-4.479 10.001-10.001.001-42.826-34.14-77.668-76.104-77.668z"/><path d="M129.199 91.155c-5.524 0-10.001 4.477-10.001 10.001 0 5.523 4.479 10.001 10.001 10.001 7.227 0 13.105 6.124 13.105 13.652 0 5.523 4.478 10.001 10.001 10.001s10.001-4.479 10.001-10.001c.001-18.557-14.852-33.654-33.107-33.654zm329.29-11.89H436.32c-5.523 0-10.001 4.478-10.001 10.001s4.478 10.001 10.001 10.001h22.169c18.474 0 33.504 15.03 33.504 33.504V268.53c0 10.637-4.989 20.124-12.742 26.266v-26.154c0-20.404-14.559-37.929-34.617-41.67l-6.465-1.205a45.13 45.13 0 002.231-14.025V188.76c0-24.989-20.33-45.319-45.319-45.319s-45.318 20.33-45.318 45.319v22.982c0 4.895.79 9.605 2.231 14.025l-6.465 1.205c-20.059 3.74-34.617 21.265-34.617 41.67v28.993c-10.108-5.775-16.941-16.654-16.941-29.105V132.771c0-18.474 15.03-33.504 33.504-33.504h23.836c5.523 0 10.001-4.478 10.001-10.001s-4.479-10.001-10.001-10.001h-23.836c-29.503 0-53.506 24.003-53.506 53.506V268.53c0 29.503 24.003 53.506 53.506 53.506h50.326v28.755a9.999 9.999 0 009.999 10.001c2.592 0 5.141-1.008 7.052-2.906l36.076-35.85h27.561c29.503 0 53.506-24.003 53.506-53.506V132.771c0-29.503-24.003-53.506-53.506-53.506zM369.764 188.76c0-13.96 11.356-25.317 25.316-25.317s25.317 11.357 25.317 25.317v22.982c0 13.96-11.357 25.317-25.317 25.317s-25.316-11.357-25.316-25.317V188.76zm89.482 113.253c-.253.006-.504.019-.759.019h-31.683v.002a10.005 10.005 0 00-7.05 2.906l-21.951 21.814v-14.72c0-5.523-4.479-10.001-10.001-10.001h-56.887v-33.392c0-10.775 7.689-20.031 18.281-22.007l14.099-2.629c8.186 8.067 19.412 13.055 31.786 13.055 12.373 0 23.601-4.99 31.787-13.056l14.1 2.629c10.593 1.976 18.281 11.231 18.281 22.008v33.372z"/><path d="M396.051 82.199a10.031 10.031 0 00-7.07-2.93c-2.63 0-5.211 1.06-7.071 2.93a10.046 10.046 0 00-2.93 7.071c0 2.63 1.069 5.211 2.93 7.071a10.08 10.08 0 007.071 2.93c2.63 0 5.211-1.07 7.07-2.93a10.095 10.095 0 002.931-7.071c0-2.64-1.07-5.211-2.931-7.071zM185.878 336.437a10.059 10.059 0 00-7.071-2.93c-2.63 0-5.211 1.07-7.07 2.93a10.077 10.077 0 00-2.931 7.071c0 2.64 1.07 5.211 2.931 7.071a10.058 10.058 0 007.07 2.939 10.02 10.02 0 0010.001-10.01c0-2.63-1.06-5.21-2.93-7.071z"/><path d="M404.784 426.87l-76.62-76.621c-10.2-10.2-26.246-11.692-38.15-3.551l-48.902 33.438a10.005 10.005 0 01-12.716-1.185l-16.171-16.172c-3.904-3.903-10.235-3.904-14.145 0-3.905 3.905-3.905 10.237 0 14.145l16.171 16.172c10.2 10.199 26.244 11.694 38.15 3.551l48.902-33.437a10.005 10.005 0 0112.716 1.184l76.621 76.621c3.899 3.898 3.898 10.244-.001 14.145-49.132 49.132-129.077 49.132-178.209 0L56.848 299.576c-23.802-23.801-36.908-55.445-36.908-89.105s13.107-65.305 36.909-89.107a9.933 9.933 0 017.071-2.928 9.933 9.933 0 017.072 2.929l76.62 76.621a10.009 10.009 0 011.185 12.716l-33.436 48.902c-8.143 11.905-6.649 27.949 3.55 38.15l24.308 24.308c3.906 3.904 10.237 3.904 14.145 0 3.905-3.905 3.905-10.238 0-14.145l-24.308-24.308a10.006 10.006 0 01-1.184-12.715l33.437-48.902c8.141-11.906 6.647-27.951-3.552-38.15l-76.62-76.621c-11.698-11.698-30.733-11.698-42.433 0-56.931 56.932-56.931 149.567 0 206.499l155.582 155.581C226.752 497.767 264.143 512 301.534 512c37.392-.001 74.783-14.234 103.249-42.699 11.698-11.698 11.698-30.732.001-42.431z"/><path d="M134.727 245.919l-60.626-60.626c-3.907-3.904-10.238-3.904-14.145 0-3.905 3.906-3.905 10.239 0 14.145l60.627 60.626a9.971 9.971 0 007.072 2.929 9.975 9.975 0 007.072-2.929c3.905-3.906 3.905-10.239 0-14.145zm232.034 232.033l-63.789-63.789c-3.907-3.904-10.238-3.904-14.145 0-3.905 3.906-3.905 10.239 0 14.145l63.789 63.789a9.971 9.971 0 007.072 2.929 9.979 9.979 0 007.073-2.929c3.905-3.907 3.905-10.239 0-14.145z"/></symbol><symbol viewBox="0 0 512 512" id="profanity" xmlns="http://www.w3.org/2000/svg"><path d="M484 354.227c5.522 0 10-4.478 10-10V319.85c0-29.538-24.024-53.568-53.554-53.568h-30.083c5.036-12.668 8.195-25.223 9.344-37.174h11.812c17.248 0 31.281-14.035 31.281-31.287v-26.249c0-17.252-14.033-31.287-31.281-31.287h-13.055c-5.081-34.642-21.142-66.691-46.483-92.04C340.881 17.134 299.69 0 256 0c-43.703 0-84.901 17.134-116.006 48.244-25.343 25.347-41.406 57.397-46.487 92.04H80.48c-17.248 0-31.281 14.035-31.281 31.287v26.249c0 17.252 14.033 31.287 31.281 31.287h11.784c1.149 11.95 4.308 24.506 9.344 37.174H71.554C42.024 266.281 18 290.312 18 319.85v138.555C18 487.957 42.024 512 71.554 512h368.893C469.976 512 494 487.957 494 458.404v-24.35c0-5.522-4.478-10-10-10s-10 4.478-10 10v24.35C474 476.929 458.948 492 440.446 492H71.554C53.052 492 38 476.929 38 458.404V319.85c0-18.51 15.052-33.568 33.554-33.568h323.285l.034.002.029-.002h45.546c18.502 0 33.554 15.059 33.554 33.568v24.377c-.002 5.522 4.476 10 9.998 10zm-41.199-182.656v26.249c0 6.224-5.061 11.287-11.281 11.287h-11.31v-44.849c0-1.327-.017-2.652-.049-3.975h11.358c6.221.001 11.282 5.065 11.282 11.288zM256 20c66.165 0 122.057 44.808 138.966 105.68-31.884-17.954-60.491-4.568-86.279 7.505-16.858 7.894-34.292 16.056-52.687 16.056s-35.828-8.162-52.687-16.056c-25.798-12.079-54.416-25.468-86.311-7.488C133.909 64.816 189.816 20 256 20zM69.199 197.82v-26.249c0-6.224 5.061-11.287 11.281-11.287h11.33a169.606 169.606 0 00-.049 3.975v44.849H80.48c-6.22-.001-11.281-5.064-11.281-11.288zm42.563 21.287v-54.849c0-3.391.127-6.752.358-10.086 13.237-12.434 25.951-17.925 39.788-17.214 13.799.702 27.946 7.326 42.925 14.34 18.841 8.821 38.323 17.942 61.168 17.942s42.327-9.121 61.168-17.942c14.979-7.014 29.126-13.638 42.925-14.34 13.826-.708 26.532 4.771 39.757 17.185.233 3.343.36 6.714.36 10.115v54.849c0 14.516-4.005 30.72-11.603 47.174H123.365c-7.598-16.453-11.603-32.658-11.603-47.174z"/><path d="M222.894 205.753l-65.317-28.629c-5.057-2.214-10.956.086-13.174 5.145-2.217 5.059.087 10.956 5.145 13.174l32.751 14.355v23.852c0 5.522 4.478 10 10 10s10-4.478 10-10v-15.086l12.566 5.508a9.98 9.98 0 004.01.844c3.85 0 7.52-2.236 9.164-5.988 2.216-5.06-.088-10.957-5.145-13.175zm144.704-23.482c-2.216-5.059-8.115-7.363-13.172-5.146l-65.346 28.629c-5.059 2.216-7.363 8.113-5.146 13.172a10 10 0 009.164 5.99c1.34 0 2.702-.271 4.008-.844l12.597-5.519v15.097c0 5.522 4.478 10 10 10s10-4.478 10-10v-23.86l32.749-14.348c5.058-2.215 7.362-8.113 5.146-13.171zM91.132 324.3c0-5.522-4.478-10-10-10s-10 4.478-10 10v84.329c0 5.522 4.478 10 10 10s10-4.478 10-10zm-10 119.654c-5.522 0-10 4.478-10 10v.057c0 5.522 4.478 9.972 10 9.972s10-4.506 10-10.028-4.478-10.001-10-10.001zm197.762-86.036v-9.411c0-18.861-15.342-34.207-34.2-34.207-18.842 0-34.171 15.346-34.171 34.207v9.411c0 5.522 4.478 10 10 10s10-4.478 10-10v-9.411c0-7.834 6.357-14.207 14.171-14.207 7.83 0 14.2 6.373 14.2 14.207v9.411c0 2.492-3.604 6.802-6.785 10.604-5.41 6.469-12.145 14.521-12.145 25.253v14.854c0 5.522 4.478 10 10 10s10-4.478 10-10v-14.854c0-3.471 3.806-8.021 7.486-12.422 5.364-6.413 11.444-13.681 11.444-23.435zm-28.902 86.008c-5.522 0-10 4.478-10 10v.057c0 5.522 4.478 9.972 10 9.972s10-4.506 10-10.028-4.477-10.001-10-10.001zm-99.888-88.537h23.265c5.522 0 10-4.478 10-10s-4.478-10-10-10h-12.572l.015-11.075c.008-5.523-4.464-10.006-9.986-10.014h-.014c-5.517 0-9.992 4.469-10 9.986l-.017 12.494c-13.033 3.992-22.539 16.137-22.539 30.463 0 17.581 14.287 31.884 31.848 31.884h1.587c6.33 0 11.678 5.429 11.678 11.854 0 6.536-5.314 11.854-11.848 11.854h-23.265c-5.522 0-10 4.478-10 10s4.478 10 10 10h12.556v11.09c0 5.522 4.478 10 10 10s10-4.478 10-10v-12.476c13.042-3.987 22.557-16.135 22.557-30.468 0-17.564-14.211-31.854-31.678-31.854h-1.587c-6.533 0-11.848-5.331-11.848-11.884.001-6.536 5.315-11.854 11.848-11.854zm280.821 14.144c5.522 0 10-4.478 10-10s-4.478-10-10-10h-9.983l4.344-23.439c1.006-5.431-2.58-10.648-8.011-11.655-5.424-.992-10.648 2.58-11.655 8.011l-5.02 27.084h-39.569l4.349-23.438c1.008-5.43-2.577-10.648-8.008-11.656-5.429-1.01-10.649 2.577-11.656 8.008l-5.026 27.086h-15.774c-5.522 0-10 4.478-10 10s4.478 10 10 10h12.063l-7.261 39.13h-13.672c-5.522 0-10 4.478-10 10s4.478 10 10 10h9.961l-4.349 23.438c-1.008 5.43 2.577 10.648 8.008 11.656.616.114 1.23.17 1.836.17 4.725 0 8.928-3.364 9.82-8.178l5.026-27.087h39.586l-4.344 23.44c-1.006 5.431 2.58 10.648 8.011 11.655a10.16 10.16 0 001.834.169c4.726 0 8.929-3.365 9.821-8.18l5.02-27.085h15.78c5.522 0 10-4.478 10-10s-4.478-10-10-10h-12.073l7.252-39.13h13.69zm-41.284 39.13h-39.582l7.26-39.13h39.574z"/></symbol><symbol viewBox="0 0 975.036 975.036" id="quote" xmlns="http://www.w3.org/2000/svg"><path d="M925.036 57.197h-304c-27.6 0-50 22.4-50 50v304c0 27.601 22.4 50 50 50h145.5c-1.9 79.601-20.4 143.3-55.4 191.2-27.6 37.8-69.399 69.1-125.3 93.8-25.7 11.3-36.8 41.7-24.8 67.101l36 76c11.6 24.399 40.3 35.1 65.1 24.399 66.2-28.6 122.101-64.8 167.7-108.8 55.601-53.7 93.7-114.3 114.3-181.9 20.601-67.6 30.9-159.8 30.9-276.8v-239c0-27.599-22.401-50-50-50zm-819 856.3c65.4-28.5 121-64.699 166.9-108.6 56.1-53.7 94.4-114.1 115-181.2 20.6-67.1 30.899-159.6 30.899-277.5v-239c0-27.6-22.399-50-50-50h-304c-27.6 0-50 22.4-50 50v304c0 27.601 22.4 50 50 50h145.5c-1.9 79.601-20.4 143.3-55.4 191.2-27.6 37.8-69.4 69.1-125.3 93.8-25.7 11.3-36.8 41.7-24.8 67.101l35.9 75.8c11.601 24.399 40.501 35.2 65.301 24.399z"/></symbol><symbol viewBox="0 0 490.8 490.8" id="right-arrow" xmlns="http://www.w3.org/2000/svg"><path d="M135.685 3.128c-4.237-4.093-10.99-3.975-15.083.262-3.992 4.134-3.992 10.687 0 14.82l227.115 227.136-227.136 227.115c-4.237 4.093-4.354 10.845-.262 15.083 4.093 4.237 10.845 4.354 15.083.262.089-.086.176-.173.262-.262l234.667-234.667c4.164-4.165 4.164-10.917 0-15.083L135.685 3.128z"/><path d="M128.133 490.68a10.667 10.667 0 01-7.552-18.219l227.136-227.115L120.581 18.232c-4.171-4.171-4.171-10.933 0-15.104 4.171-4.171 10.933-4.171 15.104 0l234.667 234.667c4.164 4.165 4.164 10.917 0 15.083L135.685 487.544a10.663 10.663 0 01-7.552 3.136z"/></symbol><symbol viewBox="0 0 512.001 512.001" id="robber" xmlns="http://www.w3.org/2000/svg"><path d="M172.498 153.92h.007c5.523 0 9.996-4.477 9.996-10s-4.48-10-10.003-10-10 4.477-10 10 4.477 10 10 10zm67 0h.007c5.523 0 9.996-4.477 9.996-10s-4.48-10-10.003-10-10 4.477-10 10 4.477 10 10 10z"/><path d="M166.002 183.92h80c22.056 0 40-17.944 40-40s-17.944-40-40-40h-80c-22.056 0-40 17.944-40 40s17.944 40 40 40zm0-60h80c11.028 0 20 8.972 20 20s-8.972 20-20 20h-80c-11.028 0-20-8.972-20-20s8.972-20 20-20zm233.192 274.268l-14.545-6.025a5.697 5.697 0 01-3.09-3.115c-.591-1.428-.598-2.986-.017-4.388s1.687-2.499 3.115-3.091c1.428-.591 2.986-.599 4.388-.017l7.272 3.012c5.103 2.114 10.952-.31 13.065-5.412s-.31-10.952-5.412-13.065l-5.876-2.434v-.832c0-5.523-4.477-10-10-10-5.471 0-9.909 4.395-9.992 9.846-.368.134-.735.274-1.1.425-6.364 2.636-11.314 7.578-13.938 13.914-2.626 6.337-2.619 13.332.017 19.696 2.636 6.364 7.578 11.314 13.914 13.938l14.545 6.025c2.876 1.191 4.299 4.628 3.108 7.503-1.191 2.876-4.628 4.301-7.503 3.109l-7.272-3.013c-5.1-2.114-10.952.309-13.065 5.411-2.114 5.103.309 10.952 5.411 13.066l5.876 2.435v.832c0 5.523 4.477 10 10 10 5.472 0 9.911-4.397 9.992-9.85 6.569-2.378 12.161-7.388 15.039-14.335 5.431-13.115-.819-28.203-13.932-33.635z"/><path d="M467.937 342.689c-9.918-18.163-23.956-31.133-41.44-38.548l11.51-43.242a9.999 9.999 0 00-7.702-12.377c-34.81-6.962-60.885-4.88-83.876-1.593a10 10 0 00-8.01 13.241l9.833 27.737c-5.972-3.272-12.727-5.792-20.094-7.419l-78.656-17.371v-8.663c37.1-16.668 63.001-53.967 63.001-97.204V106.5c0-58.724-47.776-106.5-106.5-106.5a105.45 105.45 0 00-37.308 6.786c-5.168 1.947-7.779 7.715-5.833 12.883 1.947 5.168 7.717 7.78 12.883 5.833a85.537 85.537 0 0130.257-5.501c47.696 0 86.5 38.804 86.5 86.5v50.749c0 36.913-23.244 68.493-55.861 80.889a9.76 9.76 0 00-1.224.458 86.106 86.106 0 01-29.415 5.153 86.1 86.1 0 01-29.418-5.154 9.792 9.792 0 00-1.22-.456c-32.619-12.396-55.863-43.977-55.863-80.89V106.5a85.515 85.515 0 015.504-30.263c1.948-5.168-.663-10.937-5.831-12.884-5.167-1.946-10.936.662-12.884 5.831A105.44 105.44 0 0099.5 106.5v50.749c0 43.237 25.901 80.536 63 97.204v8.663l-78.658 17.371c-28.252 6.24-46.128 24.586-47.819 49.076l-10 144.853A9.997 9.997 0 0036 485.105h163.006c5.523 0 10-4.477 10-10s-4.477-10-10-10h-92.288l3.761-54.369c.381-5.509-3.776-10.285-9.286-10.666-5.504-.38-10.285 3.777-10.666 9.286l-3.856 55.749H46.715l9.263-134.164c1.507-21.829 23.006-28.898 32.18-30.924l76.302-16.851c5.514 17.7 22.052 30.586 41.543 30.586s36.029-12.886 41.543-30.586l76.3 16.851c7.189 1.588 13.467 4.219 18.506 7.678-14.101 7.713-25.61 19.451-34.098 34.996-14.93 27.342-18.064 61.788-18.064 85.87 0 13.753 2.421 25.97 7.062 36.545h-18.244c-5.523 0-10 4.477-10 10s4.477 10 10 10h31.482c16.615 17.476 42.999 26.897 77.606 26.897 62.22 0 97.906-30.414 97.906-83.442-.001-24.084-3.135-58.53-18.065-85.872zM206.002 293.75c-12.958 0-23.5-10.542-23.5-23.5v-9.12a106.46 106.46 0 0023.5 2.618c8.073 0 15.936-.908 23.5-2.618v9.12c0 12.958-10.542 23.5-23.5 23.5zm209.881-27.481l-8.574 32.209c-6.104-1.096-12.515-1.651-19.214-1.651-5.213 0-10.247.346-15.102 1.011l-11.573-32.645c17.209-1.836 34.2-2.048 54.463 1.076zm28.471 211.148c-13.058 9.542-32.512 14.584-56.259 14.584s-43.202-5.043-56.259-14.584c-14.364-10.495-21.647-26.934-21.647-48.858 0-50.972 13.516-111.732 77.906-111.732s77.906 60.761 77.906 111.732c0 21.924-7.283 38.363-21.647 48.858z"/><path d="M239.01 465.104h-.008c-5.523 0-9.996 4.477-9.996 10s4.481 10 10.004 10 10-4.477 10-10-4.477-10-10-10zM137.771 48.26a9.965 9.965 0 006.727-2.602c4.086-3.715 4.388-10.04.673-14.126-3.715-4.087-10.04-4.388-14.126-.673l-.005.005c-4.086 3.715-4.385 10.037-.67 14.124a9.966 9.966 0 007.401 3.272z"/></symbol><symbol viewBox="0 0 512 512" id="scared" xmlns="http://www.w3.org/2000/svg"><path d="M437.02 74.98C388.668 26.63 324.379 0 256 0c-52.031 0-102.125 15.535-144.867 44.922-4.551 3.133-5.703 9.355-2.574 13.906 3.128 4.555 9.355 5.703 13.906 2.574C161.855 34.316 208.03 20 256 20c130.129 0 236 105.871 236 236S386.129 492 256 492 20 386.129 20 256c0-47.973 14.316-94.145 41.398-133.531a9.996 9.996 0 00-2.574-13.903c-4.547-3.129-10.773-1.98-13.906 2.57C15.531 153.872 0 203.966 0 256c0 68.379 26.629 132.668 74.98 181.02C123.332 485.37 187.621 512 256 512s132.668-26.629 181.02-74.98C485.37 388.668 512 324.379 512 256s-26.629-132.668-74.98-181.02zm0 0"/><path d="M75.648 89.738a9.964 9.964 0 006.395 2.317 9.986 9.986 0 007.691-3.602c3.536-4.242 2.961-10.547-1.28-14.086-4.24-3.531-10.548-2.96-14.087 1.281l-.004.008c-3.535 4.242-2.957 10.547 1.285 14.082zm196.344 280.965c-5.312 4.555-8.82 7.563-15.992 7.563s-10.68-3.008-15.992-7.563c-6.434-5.512-14.438-12.375-29.008-12.375s-22.574 6.863-29.008 12.375c-5.312 4.555-8.82 7.563-15.992 7.563-5.523 0-10 4.476-10 10 0 5.52 4.477 10 10 10 14.57 0 22.578-6.864 29.008-12.38 5.312-4.55 8.82-7.558 15.992-7.558s10.68 3.008 15.992 7.559c6.434 5.515 14.438 12.379 29.008 12.379s22.574-6.864 29.008-12.38c5.312-4.55 8.82-7.558 15.992-7.558s10.68 3.008 15.992 7.559c6.43 5.515 14.438 12.379 29.008 12.379 5.523 0 10-4.48 10-10 0-5.524-4.477-10-10-10-7.172 0-10.68-3.008-15.992-7.563-6.434-5.512-14.438-12.375-29.008-12.375s-22.574 6.863-29.008 12.375zm86.082-151.773c-3.906-3.907-10.238-3.907-14.144 0l-30 30c-3.903 3.906-3.903 10.234 0 14.14l30 30A9.968 9.968 0 00351 296a9.97 9.97 0 007.074-2.93c3.903-3.902 3.903-10.234 0-14.14L335.144 256l22.93-22.93c3.906-3.902 3.906-10.234 0-14.14zm-204.148 74.14c1.953 1.953 4.512 2.93 7.07 2.93s5.121-.977 7.07-2.93l30-30c3.907-3.902 3.907-10.234 0-14.14l-30-30c-3.902-3.907-10.234-3.907-14.14 0s-3.906 10.238 0 14.14l22.93 22.93-22.93 22.93c-3.906 3.902-3.906 10.234 0 14.14zm0 0"/></symbol><symbol viewBox="0 0 64 64" id="telephone" xmlns="http://www.w3.org/2000/svg"><path d="M43.071 40.728a3 3 0 00-4.243 0l-4.242 4.243a7.01 7.01 0 01-9.9 0l-5.657-5.657a7.009 7.009 0 010-9.9l4.243-4.242a3 3 0 000-4.243l-8.485-8.485a3.071 3.071 0 00-4.243 0l-2.828 2.828a19.022 19.022 0 000 26.87l14.142 14.142a19 19 0 0026.87 0l2.829-2.828a3.005 3.005 0 000-4.243zm-31.112-26.87a1.023 1.023 0 011.414 0l8.485 8.486a1 1 0 010 1.413l-2.122 2.122-9.9-9.9zM23.272 54.87L9.13 40.728a17.023 17.023 0 01-.687-23.314l9.879 9.879-.707.707a9.01 9.01 0 000 12.728l5.657 5.657a9.01 9.01 0 0012.728 0l.707-.707 9.879 9.879a17.023 17.023 0 01-23.314-.687zm26.871-2.828l-2.122 2.121-9.9-9.9 2.121-2.122a1 1 0 011.415 0l8.486 8.485a1 1 0 010 1.416z"/><path d="M61 10h-8.026A4.948 4.948 0 0054 7a4.985 4.985 0 00-9-2.969A4.981 4.981 0 1037.026 10H29a1 1 0 00-1 1v8a1 1 0 001 1h2v17a1 1 0 001 1h26a1 1 0 001-1V20h2a1 1 0 001-1v-8a1 1 0 00-1-1zM46 7a3 3 0 113 3h-3zm-5 29h-8V20h8zm0-18H30v-6h11zM38 7a3 3 0 016 0v3h-3a3 3 0 01-3-3zm9 29h-4V12h4zm10 0h-8V20h8zm3-18H49v-6h11z"/></symbol></svg>