<?xml version="1.0" encoding="utf-8"?><svg xmlns="http://www.w3.org/2000/svg" xmlns:xlink="http://www.w3.org/1999/xlink"><symbol viewBox="0 0 512 512" id="arrow_right" xmlns="http://www.w3.org/2000/svg"><path d="M80 271.996h319.192L276.968 388.412c-6.4 6.096-6.648 16.224-.552 22.624 6.088 6.392 16.216 6.648 22.624.552l139.584-132.96c6.04-6.048 9.376-14.08 9.376-22.632 0-8.544-3.336-16.584-9.656-22.896L299.032 100.412A15.929 15.929 0 00288 95.996a15.958 15.958 0 00-11.592 4.968c-6.096 6.4-5.848 16.52.552 22.616l122.736 116.416H80c-8.832 0-16 7.168-16 16s7.168 16 16 16z"/></symbol><symbol viewBox="0 -46 417.813 417" id="check" xmlns="http://www.w3.org/2000/svg"><path d="M159.988 318.582c-3.988 4.012-9.43 6.25-15.082 6.25s-11.094-2.238-15.082-6.25L9.375 198.113c-12.5-12.5-12.5-32.77 0-45.246l15.082-15.086c12.504-12.5 32.75-12.5 45.25 0l75.2 75.203L348.104 9.781c12.504-12.5 32.77-12.5 45.25 0l15.082 15.086c12.5 12.5 12.5 32.766 0 45.246zm0 0"/></symbol><symbol viewBox="0 0 501.333 501.333" id="mail" xmlns="http://www.w3.org/2000/svg"><path d="M455.466 49.6h-409.6C20.267 49.6 0 69.867 0 95.466v310.4c0 25.6 20.267 45.867 45.867 45.867h409.6c25.6 0 45.867-21.333 45.867-45.867v-310.4c-.001-25.599-20.268-45.866-45.868-45.866zm-24.533 41.6L250.666 252.267 71.466 91.2h359.467zm28.8 314.667c0 2.133-2.133 4.267-4.266 4.267h-409.6c-2.133 0-4.267-2.133-4.267-4.267V122.133L236.8 296c4.267 3.2 8.533 5.333 13.867 5.333 5.333 0 9.6-2.133 13.867-5.333l195.2-173.867v283.734h-.001z"/></symbol><symbol viewBox="0 0 512.457 512.457" id="phone" xmlns="http://www.w3.org/2000/svg"><path d="M505.847 376.187c-2.506-4.739-5.667-9.463-9.428-14.215-8.571-10.83-20.227-21.791-34.287-32.906-9.809-7.755-20.237-15.145-30.657-21.961-6.267-4.1-11.191-7.129-14.123-8.847-24.749-14.092-53.262-12.224-67.987 11.507-.684.812-1.553 1.841-2.567 3.034a676.664 676.664 0 01-8.252 9.535l-1.151 1.298c-4.427 4.973-8.479 9.158-8.33 9.057-16.299 11.031-26.909 10.163-41.279-4.208l-103.81-103.808c-14.37-14.37-15.239-24.98-4.201-41.289-.107.158 4.078-3.894 9.051-8.321l1.298-1.151a676.664 676.664 0 019.535-8.252 720.108 720.108 0 013.034-2.567c23.731-14.725 25.602-43.232 11.64-67.756-1.851-3.163-4.88-8.086-8.98-14.354-6.816-10.42-14.206-20.848-21.961-30.657-11.114-14.06-22.076-25.716-32.906-34.287-4.752-3.761-9.477-6.922-14.222-9.432-22.077-11.67-49.146-7.606-66.816 10.03L46.514 39.592c-76.079 76.079-55.111 166.746 35.804 257.661l66.43 66.451 61.632 61.613-17.926 26.889-24.916-37.374c-8.444-12.666-27.057-12.666-35.501 0l-24.916 37.374-24.916-37.374c-8.444-12.666-27.057-12.666-35.501 0l-42.667 64c-6.536 9.803-3.886 23.049 5.917 29.584s23.048 3.886 29.584-5.917l24.916-37.374L89.37 502.5c8.444 12.666 27.057 12.666 35.501 0l24.916-37.374 24.916 37.374c8.444 12.666 27.057 12.666 35.501 0l31.759-47.639c81.819 69.365 162.293 79.691 230.909 11.076l22.919-22.94c17.659-17.626 21.74-44.739 10.056-66.81zm-40.218 36.632l-22.934 22.955c-55.66 55.66-120.958 40.559-197.322-35.804l-66.456-66.434-66.427-66.448c-76.366-76.366-91.467-141.664-35.8-197.331l22.919-22.94c4.408-4.4 11.174-5.415 16.709-2.489 2.276 1.204 4.866 2.937 7.688 5.17 7.823 6.191 16.675 15.605 25.913 27.291 6.887 8.712 13.561 18.13 19.727 27.554 3.689 5.64 6.357 9.977 7.74 12.337 3.849 6.764 3.612 9.72 2.477 10.358l-3.217 2.217a671.42 671.42 0 00-4.631 3.907 725.891 725.891 0 00-10.144 8.78l-1.418 1.257c-8.44 7.514-13.205 12.127-16.009 16.265-22.372 33.057-19.645 66.377 9.36 95.382l103.808 103.808c29.005 29.005 62.325 31.733 95.373 9.367 4.147-2.81 8.76-7.575 16.274-16.015.63-.709.63-.709 1.257-1.418a719.31 719.31 0 008.78-10.144c1.76-2.069 3.12-3.686 3.907-4.631l2.217-3.217c.637-1.135 3.594-1.371 10.589 2.611 2.129 1.25 6.466 3.918 12.106 7.607 9.425 6.165 18.842 12.839 27.555 19.727 11.686 9.238 21.099 18.09 27.29 25.913 2.233 2.821 3.966 5.412 5.173 7.693a14.17 14.17 0 01-2.504 16.672z"/></symbol><symbol viewBox="0 0 512 512" id="question" xmlns="http://www.w3.org/2000/svg"><path d="M417.3 142.4c-5.5 0-10 4.5-10 10v174.7c0 27.6-22.4 50-50 50h-108c-5.5 0-10 4.5-10 10V407l-23.9-23.9c-1.5-3.5-5.1-6-9.2-6h-65c-27.6 0-50-22.4-50-50v-154c0-27.6 22.4-50 50-50h233c5.5 0 10-4.5 10-10s-4.5-10-10-10h-233c-38.6 0-70 31.4-70 70v154c0 38.6 31.4 70 70 70h59.9l41.1 41.1c1.9 1.9 4.5 2.9 7.1 2.9 1.3 0 2.6-.2 3.8-.8 3.7-1.5 6.2-5.2 6.2-9.2v-34h98c38.6 0 70-31.4 70-70V152.4c0-5.5-4.4-10-10-10z"/><path d="M291.6 210.8c-1.4-20.9-18.3-37.8-39.3-39.3-11.9-.8-23.2 3.2-31.9 11.3-8.5 8-13.5 19.3-13.5 31 0 5.5 4.5 10 10 10s10-4.5 10-10c0-6.3 2.5-12.1 7.1-16.3 4.6-4.3 10.6-6.4 16.8-5.9 11 .8 19.9 9.6 20.7 20.7.8 11.1-6.5 21-17.4 23.4-8.8 2-14.9 9.6-14.9 18.5v24c0 5.5 4.5 10 10 10s10-4.5 10-10V255c20.3-4.9 33.8-23.3 32.4-44.2zm-35.2 99.9c-1.9-1.9-4.4-2.9-7.1-2.9s-5.2 1.1-7.1 2.9c-1.9 1.9-2.9 4.4-2.9 7.1 0 2.6 1.1 5.2 2.9 7.1 1.9 1.9 4.4 2.9 7.1 2.9s5.2-1.1 7.1-2.9c1.9-1.9 2.9-4.4 2.9-7.1s-1-5.3-2.9-7.1zm168-204.7c-1.9-1.9-4.4-2.9-7.1-2.9s-5.2 1.1-7.1 2.9c-1.9 1.9-2.9 4.4-2.9 7.1s1.1 5.2 2.9 7.1c1.9 1.9 4.4 2.9 7.1 2.9s5.2-1.1 7.1-2.9c1.9-1.9 2.9-4.4 2.9-7.1 0-2.6-1-5.2-2.9-7.1z"/></symbol><symbol viewBox="0 0 975.036 975.036" id="quote" xmlns="http://www.w3.org/2000/svg"><path d="M925.036 57.197h-304c-27.6 0-50 22.4-50 50v304c0 27.601 22.4 50 50 50h145.5c-1.9 79.601-20.4 143.3-55.4 191.2-27.6 37.8-69.399 69.1-125.3 93.8-25.7 11.3-36.8 41.7-24.8 67.101l36 76c11.6 24.399 40.3 35.1 65.1 24.399 66.2-28.6 122.101-64.8 167.7-108.8 55.601-53.7 93.7-114.3 114.3-181.9 20.601-67.6 30.9-159.8 30.9-276.8v-239c0-27.599-22.401-50-50-50zm-819 856.3c65.4-28.5 121-64.699 166.9-108.6 56.1-53.7 94.4-114.1 115-181.2 20.6-67.1 30.899-159.6 30.899-277.5v-239c0-27.6-22.399-50-50-50h-304c-27.6 0-50 22.4-50 50v304c0 27.601 22.4 50 50 50h145.5c-1.9 79.601-20.4 143.3-55.4 191.2-27.6 37.8-69.4 69.1-125.3 93.8-25.7 11.3-36.8 41.7-24.8 67.101l35.9 75.8c11.601 24.399 40.501 35.2 65.301 24.399z"/></symbol><symbol viewBox="0 0 490.8 490.8" id="right-arrow" xmlns="http://www.w3.org/2000/svg"><path d="M135.685 3.128c-4.237-4.093-10.99-3.975-15.083.262-3.992 4.134-3.992 10.687 0 14.82l227.115 227.136-227.136 227.115c-4.237 4.093-4.354 10.845-.262 15.083 4.093 4.237 10.845 4.354 15.083.262.089-.086.176-.173.262-.262l234.667-234.667c4.164-4.165 4.164-10.917 0-15.083L135.685 3.128z"/><path d="M128.133 490.68a10.667 10.667 0 01-7.552-18.219l227.136-227.115L120.581 18.232c-4.171-4.171-4.171-10.933 0-15.104 4.171-4.171 10.933-4.171 15.104 0l234.667 234.667c4.164 4.165 4.164 10.917 0 15.083L135.685 487.544a10.663 10.663 0 01-7.552 3.136z"/></symbol><symbol viewBox="0 0 486.7 486.7" id="user" xmlns="http://www.w3.org/2000/svg"><path d="M243.5 304c84.3 0 152.5-67.2 152.5-151.5S327.8 0 243.5 0 91 67.2 91 151.5 159.3 304 243.5 304zm0-263.5c52.8 0 97 35.7 108.9 84.6 3.6 18.1 5.1 36.6-1.6 58.8-13.9 46-56.6 79.5-107.2 79.5-61.9 0-112-49.1-112-110.9s50.1-112 111.9-112zm239 412.8c-46.9-59.7-117.3-93.9-194.1-93.9h-89.6c-76.8 0-147.2 34.1-194.1 93.9-7.5 9.6-5.3 22.4 3.2 28.8 9.6 7.5 22.4 5.3 28.8-3.2 38.4-49.1 98.1-77.9 162.1-77.9h89.5c64 0 122.7 27.7 162.1 77.9 12.4 12.5 24.5 6.4 28.8 3.2 8.6-7.5 9.7-20.3 3.3-28.8z"/></symbol></svg>