<svg fill="#b3b3b3" version="1.1" id="Layer_1" xmlns="http://www.w3.org/2000/svg" x="0" y="0" width="512" height="512" xml:space="preserve"><path d="M274.686 223.906a30.024 30.024 0 003.64-14.391c.001-8.069-3.155-15.669-8.888-21.402s-13.333-8.889-21.401-8.889h-53.595l-7.334-12.701c-7.868-13.63-27.65-19.742-44.238-13.732l-88.856 26.434H10c-5.522 0-10 4.477-10 10v144.613a10.001 10.001 0 0010 10h11.38c19.978 0 33.539 3.852 47.897 7.93 16.128 4.581 34.408 9.773 63.099 9.773h101.635c16.701 0 30.289-13.588 30.289-30.29 0-4.772-1.109-9.29-3.084-13.31 10.118-4.91 17.109-15.289 17.109-27.269 0-5.205-1.32-10.108-3.643-14.392 9.012-5.253 15.081-15.025 15.081-26.187.001-8.069-3.155-15.669-8.888-21.402a30.643 30.643 0 00-6.189-4.785zm-26.65-24.681c2.727 0 5.304 1.077 7.259 3.031 1.954 1.954 3.03 4.532 3.03 7.26 0 2.726-1.076 5.303-3.03 7.257-1.953 1.953-4.529 3.03-7.254 3.031h-30.423a30.598 30.598 0 00-1.599-3.207l-10.03-17.373 42.047.001zM74.741 332.529c-15.043-4.272-30.599-8.69-53.361-8.69H20V199.225h35.469c.966 0 1.926-.14 2.852-.415l90.554-26.938a9.6 9.6 0 00.646-.217c8.222-3.07 17.479.038 20.267 4.868l28.911 50.074c2.836 4.913 1.146 11.218-3.768 14.056-5.403 3.119-11.448.102-14.396-4.317-5.589-8.376-14.662-20.936-21.377-28.72-3.606-4.181-9.919-4.648-14.104-1.04-4.182 3.607-4.647 9.922-1.04 14.104.91 1.055 1.884 2.229 2.9 3.489-6.293 4.387-12.719 10.979-19.993 18.443-6.823 7-14.557 14.936-22.628 21.29-4.339 3.417-5.087 9.704-1.671 14.043a10 10 0 0014.044 1.671c7.03-5.535 13.526-11.821 19.464-17.827a30.34 30.34 0 005.47 8.594c-4.858 5.374-7.821 12.492-7.821 20.29 0 13.164 8.444 24.388 20.198 28.554a30.11 30.11 0 00-2.495 12.024c0 3.611.638 7.075 1.802 10.29h-20.908c-25.905 0-42.035-4.582-57.635-9.012zm89.326-72.146h-.006c-5.671-.004-10.283-4.618-10.283-10.289a10.29 10.29 0 015.642-9.176 330.68 330.68 0 014.477 6.519c4.243 6.359 10.168 10.763 16.677 12.946h-16.507zm69.944 81.158h-52.239c-5.674 0-10.29-4.616-10.29-10.29 0-5.672 4.614-10.287 10.285-10.289l52.244.001c5.674 0 10.289 4.616 10.289 10.289s-4.615 10.289-10.289 10.289zm14.026-40.578h-14.026l-52.234-.001h-17.709c-5.674 0-10.289-4.616-10.289-10.289 0-5.672 4.612-10.286 10.283-10.29h83.975c5.674 0 10.289 4.616 10.289 10.29s-4.617 10.289-10.289 10.29zm11.438-40.58h-59.842a29.96 29.96 0 005.298-2.41c7.159-4.133 11.989-10.769 14.033-18.169h40.511c2.727 0 5.305 1.076 7.259 3.031 1.954 1.954 3.03 4.532 3.03 7.259 0 5.674-4.616 10.289-10.289 10.289zm237.147-107.518a100.9 100.9 0 00-34.751-33.447c.077-1.131.13-2.268.13-3.418V96c0-27.57-22.43-50-49.999-50-27.57 0-50 22.43-50 50v20c0 1.149.053 2.286.13 3.416a100.88 100.88 0 00-34.674 33.328 99.405 99.405 0 00-15.456 53.258v70c0 16.542 13.458 30 30 30h9.999v140h-10c-5.522 0-10 4.477-10 10s4.478 10 10 10h140.001c5.522 0 10-4.477 10-10s-4.478-10-10-10h-10v-140h10c16.542 0 30-13.458 30-30v-70a99.406 99.406 0 00-15.38-53.137zM382.002 96c0-16.542 13.458-30 30-30 16.541 0 29.999 13.458 29.999 30v20c0 16.542-13.458 30-29.999 30-16.542 0-30-13.458-30-30V96zm-30.001 190.002h-9.999c-5.514 0-10-4.486-10-10v-60.001l19.999-.001v70.002zm70.001 160v-125.53c0-5.523-4.478-10-10-10s-10 4.477-10 10v125.53h-30.001V286.001h80.001v160.001h-30zm40.001-250.003c-.001 0-.001 0 0 0a10.003 10.003 0 00-10.001 10v60.003h-80.001v-60.003a10.001 10.001 0 00-10.001-10l-29.379.002c2.88-23.112 15.666-43.673 35.205-56.615 8.407 15.815 25.05 26.614 44.176 26.614 19.123 0 35.766-10.797 44.173-26.61 19.534 12.944 32.324 33.513 35.207 56.611l-29.379-.002zm29.999 80.003c0 5.514-4.486 10-10 10h-10V216l20 .001v60.001z"/><path d="M67.95 276.488h-.007c-5.522 0-9.996 4.477-9.996 10s4.48 10 10.003 10 10-4.477 10-10-4.477-10-10-10z"/></svg>