<svg fill="#b3b3b3" version="1.1" id="Capa_1" xmlns="http://www.w3.org/2000/svg" x="0" y="0" width="511.998" height="511.998" xml:space="preserve"><path d="M256.044 2.761c-39.701 0-72 32.299-72 72s32.299 72 72 72 72-32.299 72-72-32.299-72-72-72zm0 124.001c-28.673 0-52-23.327-52-52s23.327-52 52-52 52 23.327 52 52-23.327 52-52 52zm219.973 203.607c-16.652-9.614-36.053-12.168-54.627-7.192-18.574 4.977-34.098 16.889-43.712 33.542-19.847 34.377-8.027 78.492 26.35 98.341 11.309 6.529 23.667 9.632 35.874 9.631 24.897-.002 49.148-12.913 62.465-35.981 19.848-34.378 8.028-78.493-26.35-98.341zm9.031 88.342c-14.334 24.826-46.192 33.365-71.02 19.029-24.826-14.334-33.362-46.194-19.029-71.02 6.943-12.027 18.154-20.629 31.568-24.224a52.281 52.281 0 0113.54-1.794c9.009 0 17.9 2.364 25.911 6.989 24.826 14.333 33.364 46.193 19.03 71.02zM44.044 276.124h-.028c-5.51 0-9.984 4.459-10 9.972v.553c0 5.522 4.477 10 10 10s10-4.478 10-10.001v-.496c.016-5.523-4.449-10.012-9.972-10.028zM175.397 90.335c-2.337-5.004-8.288-7.165-13.292-4.829C95.569 116.584 48.78 178.27 36.944 250.517c-.893 5.45 2.802 10.592 8.252 11.485.547.09 1.091.134 1.629.134 4.811 0 9.053-3.482 9.856-8.386 10.766-65.722 53.341-121.843 113.887-150.123 5.004-2.337 7.166-8.288 4.829-13.292zm218.871 22.843c-4.314-3.446-10.607-2.741-14.054 1.574-3.446 4.315-2.742 10.607 1.574 14.054 48.3 38.574 76.001 96.106 76.001 157.843 0 5.522 4.477 10 10 10s10-4.478 10-10c0-67.853-30.442-131.08-83.521-173.471zM374.81 463.037c-2.882-4.711-9.036-6.196-13.749-3.314-31.578 19.308-67.941 29.514-105.159 29.514-36.652 0-72.539-9.917-103.782-28.681-4.734-2.842-10.877-1.31-13.721 3.425s-1.311 10.878 3.424 13.722c34.352 20.63 73.799 31.534 114.079 31.534 40.9 0 80.872-11.222 115.593-32.452 4.711-2.881 6.196-9.036 3.315-13.748zM134.365 356.475c-9.614-16.653-25.138-28.565-43.712-33.542-18.573-4.978-37.974-2.422-54.627 7.192-16.653 9.614-28.565 25.138-33.542 43.712-4.976 18.574-2.423 37.975 7.192 54.627 13.319 23.069 37.566 35.98 62.466 35.98 12.205 0 24.566-3.102 35.873-9.629 34.377-19.847 46.199-63.963 26.35-98.34zm-36.35 81.018c-24.827 14.332-56.686 5.797-71.02-19.03-6.943-12.026-8.787-26.036-5.193-39.45s12.197-24.625 24.223-31.568c8.012-4.625 16.902-6.987 25.911-6.987a52.4 52.4 0 0113.54 1.791c13.413 3.595 24.625 12.198 31.568 24.224 14.334 24.826 5.797 56.685-19.029 71.02z"/><circle cx="356.612" cy="100.18" r="10"/><path d="M343.7 332.221l-32.753-32.753c-5.268-5.268-12.273-8.169-19.723-8.169s-14.454 2.901-19.723 8.169l-2.135 2.135c-.973.973-2.109 1.119-2.7 1.119s-1.727-.145-2.7-1.119l-23.429-23.429a3.801 3.801 0 01-1.119-2.699c0-.591.146-1.727 1.119-2.7l2.135-2.135c10.875-10.876 10.875-28.571 0-39.446l-32.753-32.753c-10.875-10.875-28.57-10.874-39.446 0l-7.837 7.837c-25.181 25.181-25.181 66.152 0 91.334l81.896 81.895c12.198 12.197 28.416 18.915 45.666 18.915s33.468-6.718 45.666-18.917l7.837-7.837c10.874-10.877 10.874-28.571-.001-39.447zm-14.143 25.306l-7.837 7.837c-8.419 8.421-19.615 13.058-31.523 13.058-11.908 0-23.104-4.637-31.524-13.058l-81.895-81.895c-17.382-17.381-17.382-45.665 0-63.047l7.836-7.837c1.539-1.538 3.56-2.308 5.581-2.308s4.043.769 5.581 2.307l32.753 32.753c3.077 3.078 3.077 8.085 0 11.162l-2.135 2.135c-9.287 9.288-9.287 24.398 0 33.685l23.429 23.428c4.499 4.499 10.48 6.978 16.842 6.978s12.343-2.479 16.842-6.977l2.135-2.135c3.078-3.078 8.084-3.078 11.162 0l32.753 32.753c3.078 3.077 3.078 8.084 0 11.161zm-55.03-173.951c-5.523 0-10 4.477-10 10s4.477 10 10 10c35.178 0 63.798 28.619 63.798 63.798 0 5.522 4.477 10 10 10s10-4.477 10-10c.001-46.206-37.591-83.798-83.798-83.798z"/><path d="M274.526 225.745c-5.523 0-10 4.477-10 10s4.477 10 10 10c11.926 0 21.629 9.703 21.629 21.629 0 5.522 4.477 10 10 10s10-4.477 10-10c0-22.953-18.675-41.629-41.629-41.629z"/></svg>