<svg fill="#b3b3b3" version="1.1" id="Capa_1" xmlns="http://www.w3.org/2000/svg" x="0" y="0" width="512" height="512" xml:space="preserve"><path d="M390.131 171.399a10.098 10.098 0 00-1.491-3.6c-.37-.55-.79-1.06-1.25-1.52s-.97-.88-1.52-1.24c-.54-.36-1.12-.67-1.72-.92-.61-.25-1.24-.44-1.88-.57a9.847 9.847 0 00-3.9 0c-.64.13-1.27.32-1.87.57-.61.25-1.19.56-1.73.92-.55.36-1.06.78-1.52 1.24s-.88.97-1.24 1.52a10.098 10.098 0 00-1.69 5.55 10.098 10.098 0 00.77 3.83c.25.6.56 1.18.92 1.72.36.55.78 1.06 1.24 1.52a9.87 9.87 0 003.25 2.17 9.84 9.84 0 003.82.76c.65 0 1.31-.06 1.95-.19s1.27-.32 1.88-.57c.6-.25 1.18-.56 1.72-.92a9.63 9.63 0 001.52-1.25c.46-.46.88-.97 1.25-1.52.361-.54.671-1.12.921-1.72s.44-1.23.57-1.87c.13-.65.19-1.3.19-1.96 0-.649-.06-1.309-.19-1.95z"/><path d="M502 46.416H118.591c-5.523 0-10 4.477-10 10v35.019H68.158c-5.523 0-10 4.477-10 10v185.867C24.11 300.945 0 334.284 0 373.148c0 50.969 41.466 92.436 92.435 92.436 47.591 0 86.897-36.152 91.898-82.436h267.233c5.523 0 10-4.477 10-10V338.13H502c5.523 0 10-4.477 10-10V56.416c0-5.523-4.477-10-10-10zM92.435 445.584c-39.94 0-72.435-32.495-72.435-72.436s32.495-72.435 72.435-72.435c39.941 0 72.436 32.495 72.436 72.435s-32.495 72.436-72.436 72.436zm25.99-161.152v-19.579h94.97v48.556H162.92c-11.545-13.599-26.945-23.828-44.495-28.977zm323.142 78.716H184.334a91.691 91.691 0 00-8.449-29.74h47.509c5.523 0 10-4.477 10-10v-68.556c0-5.523-4.477-10-10-10h-114.97c-5.523 0-10 4.477-10 10v26.052a93.555 93.555 0 00-5.989-.192c-4.854 0-9.623.377-14.277 1.101v-64.88h363.409v146.215zm0-166.213H78.158v-13.581h261.495c5.523 0 10-4.477 10-10s-4.477-10-10-10H78.158v-13.581h363.409v47.162zm0-67.162H78.158v-18.338h363.409v18.338zM492 318.13h-30.433V101.435c0-5.523-4.477-10-10-10H128.591V66.416H492V318.13z"/><path d="M369.025 233.76a55.04 55.04 0 00-28.477 7.899c-8.578-5.186-18.319-7.899-28.531-7.899-30.531 0-55.371 24.839-55.371 55.371 0 30.531 24.839 55.371 55.371 55.371 10.211 0 19.952-2.713 28.531-7.899a55.04 55.04 0 0028.477 7.899c30.531 0 55.371-24.839 55.371-55.371-.001-30.532-24.84-55.371-55.371-55.371zm-44.387 88.435c-3.98 1.521-8.231 2.304-12.62 2.304-19.504.001-35.371-15.866-35.371-35.369s15.867-35.371 35.371-35.371c4.389 0 8.64.784 12.62 2.304-6.896 9.233-10.984 20.682-10.984 33.066s4.087 23.834 10.984 33.066zm44.387 2.305c-19.503 0-35.371-15.867-35.371-35.371 0-19.503 15.867-35.371 35.371-35.371 19.503 0 35.371 15.867 35.371 35.371-.001 19.504-15.868 35.371-35.371 35.371zm-262.447 48.648l15.359-15.36c3.905-3.905 3.905-10.237-.001-14.142-3.905-3.905-10.237-3.905-14.142 0l-15.359 15.359-15.359-15.359c-3.905-3.905-10.237-3.905-14.142 0s-3.906 10.237 0 14.142l15.359 15.36-15.359 15.36c-3.905 3.905-3.905 10.237 0 14.142 1.953 1.953 4.512 2.929 7.071 2.929s5.119-.977 7.071-2.929l15.359-15.359 15.359 15.359c1.953 1.953 4.512 2.929 7.071 2.929s5.119-.977 7.071-2.929c3.905-3.905 3.906-10.237.001-14.142l-15.359-15.36z"/></svg>