<svg fill="#b3b3b3" version="1.1" id="Capa_1" xmlns="http://www.w3.org/2000/svg" x="0" y="0" width="512" height="512" xml:space="preserve"><path d="M478.102 66.999h-18.047a43.23 43.23 0 006.923-23.5c0-23.986-19.514-43.5-43.5-43.5-13.462 0-25.515 6.148-33.5 15.783C381.993 6.148 369.941 0 356.479 0c-23.986 0-43.5 19.514-43.5 43.5a43.23 43.23 0 006.923 23.5h-18.047c-18.679 0-33.876 15.196-33.876 33.876v54.264c0 5.522 4.477 10 10 10h3.023v79.812c0 19.876 16.17 36.047 36.046 36.047h145.859c19.876 0 36.046-16.171 36.046-36.047V165.14h3.023c5.523 0 10-4.478 10-10v-54.264c.002-18.681-15.195-33.877-33.874-33.877zM399.979 43.5c0-12.958 10.542-23.5 23.5-23.5s23.5 10.542 23.5 23.5-10.542 23.5-23.5 23.5h-23.5V43.5zm-51 217.498h-31.93c-8.848 0-16.047-7.198-16.047-16.047v-79.812h47.977v95.859zm0-115.859h-61v-44.264c0-7.651 6.225-13.876 13.876-13.876h47.124v58.14zM332.98 43.5c0-12.958 10.542-23.5 23.5-23.5s23.5 10.542 23.5 23.5V67h-23.5c-12.959-.001-23.5-10.542-23.5-23.5zm145.975 201.451h-.001c0 8.849-7.198 16.047-16.046 16.047h-31.93v-16c0-5.522-4.477-10-10-10s-10 4.478-10 10v16h-42V86.999h42v82.999c0 5.522 4.477 10 10 10s10-4.478 10-10v-4.86h47.977v79.813zm13.023-99.812h-61v-58.14h47.124c7.651 0 13.876 6.225 13.876 13.876v44.264zM192.016 371.295l-55.999-56c-3.905-3.904-10.237-3.904-14.143 0-3.905 3.905-3.905 10.237 0 14.143l56 56c1.953 1.952 4.512 2.929 7.071 2.929s5.119-.977 7.071-2.929c3.905-3.905 3.905-10.237 0-14.143zm26.004 25.996a10.084 10.084 0 00-7.07-2.92c-2.64 0-5.22 1.06-7.08 2.92a10.072 10.072 0 00-2.93 7.069c0 2.641 1.07 5.21 2.93 7.08a10.082 10.082 0 007.08 2.931c2.63 0 5.2-1.07 7.07-2.931a10.088 10.088 0 002.92-7.08c0-2.63-1.06-5.21-2.92-7.069z"/><path d="M428.049 199.922c-1.86-1.861-4.44-2.92-7.07-2.92s-5.21 1.06-7.07 2.92a10.097 10.097 0 00-2.93 7.08c0 2.63 1.07 5.21 2.93 7.069 1.86 1.86 4.44 2.931 7.07 2.931s5.21-1.07 7.07-2.931a10.072 10.072 0 002.93-7.069c0-2.641-1.07-5.21-2.93-7.08zm-.34 294.998a10.085 10.085 0 00-7.08-2.92c-2.63 0-5.21 1.06-7.07 2.92-1.86 1.87-2.93 4.45-2.93 7.08s1.07 5.2 2.93 7.069c1.86 1.86 4.44 2.931 7.07 2.931s5.21-1.07 7.08-2.931a10.08 10.08 0 002.92-7.069c0-2.63-1.06-5.21-2.92-7.08z"/><path d="M481.947 451.934h-34.253a47.419 47.419 0 0010.206-26.627 47.44 47.44 0 00-13.801-36.363l-71.5-71.5c-8.955-8.954-20.86-13.886-33.524-13.886s-24.569 4.932-33.523 13.886l-23.263 23.262a18.005 18.005 0 01-12.817 5.31 18.005 18.005 0 01-12.817-5.31l-85.434-85.434a18.008 18.008 0 01-5.31-12.817c0-4.536 1.673-8.804 4.698-12.142.187-.161.375-.321.552-.499.293-.293.556-.603.805-.921l22.516-22.518c8.955-8.955 13.886-20.86 13.886-33.523 0-12.664-4.932-24.569-13.886-33.524L123.04 67.887a47.466 47.466 0 00-36.363-13.801 47.444 47.444 0 00-34.452 18.05L36.884 91.678c-53.977 68.756-48.07 167.216 13.74 229.024l140.659 140.659c33.527 33.526 77.821 50.605 122.325 50.602 37.543-.003 75.238-12.163 106.699-36.861l4.035-3.168h57.605c5.531 0 10.031 4.5 10.031 10.031s-4.499 10.031-10.03 10.031h-23.98c-5.523 0-10 4.478-10 10s4.477 10 10 10h23.98c16.559 0 30.031-13.472 30.031-30.031s-13.473-30.031-30.032-30.031zm-44.012-27.826a27.427 27.427 0 01-10.435 19.919l-15.677 12.307-75.591-75.591c-3.905-3.904-10.237-3.904-14.143 0-3.905 3.905-3.905 10.237 0 14.143l73.338 73.338c-59.77 37.953-138.996 30.003-190.001-21.004L64.767 306.561c-54.661-54.66-59.884-141.729-12.151-202.532l15.342-19.543A27.434 27.434 0 0189.516 74a27.433 27.433 0 0119.384 8.028l71.441 71.441c10.687 10.687 10.687 28.076 0 38.763l-16.308 16.309-58.299-58.298c-3.904-3.904-10.237-3.904-14.142 0-3.905 3.905-3.905 10.237 0 14.143l59.27 59.27c-3.224 5.669-4.95 12.099-4.95 18.797 0 10.184 3.966 19.759 11.167 26.96l85.434 85.434c7.201 7.201 16.775 11.167 26.959 11.167s19.758-3.966 26.959-11.167l23.263-23.262c5.177-5.177 12.06-8.028 19.381-8.028s14.205 2.852 19.381 8.028l71.5 71.5a27.43 27.43 0 017.979 21.023z"/></svg>