<svg fill="#b3b3b3" id="Capa_1" height="512" width="512" xmlns="http://www.w3.org/2000/svg"><path d="M400.714 299.946c11.406-8.842 18.2-22.636 18.2-37.002 0-13.527-5.815-26.202-15.832-35.057 1.936-15.119-3.232-28.696-14.44-37.184-8.164-6.184-18.292-8.67-28.209-7.34-3.688-28.283-27.981-50.195-57.304-50.195-6.122 0-12.076.932-17.778 2.778a61.682 61.682 0 00-40.557-15.25c-26.595 0-49.87 17.035-58.246 41.552-8.404.342-16.453 2.394-23.703 5.937-.936-55.492 19.43-109.661 57.232-150.875A9.998 9.998 0 00211.591.614c-28.32 3.18-55.694 11.403-81.366 24.441-42.247 21.475-76.758 54.564-99.803 95.689-2.7 4.818-.983 10.912 3.835 13.612 4.818 2.701 10.913.982 13.612-3.835 21.102-37.657 52.714-67.962 91.414-87.636 15.638-7.942 31.962-13.935 48.766-17.916-33.084 45.67-49.041 101.986-44.463 158.647-.2.251-.411.49-.607.745-10.807 14.064-14.461 32.075-10.571 50.695-15.036 5.241-25.852 19.541-25.852 36.317 0 21.202 17.278 38.452 38.516 38.452h47.489c45.045 58.281 114.956 92.254 188.12 92.47-13.109 11.217-27.555 20.853-43.166 28.783-28.762 14.611-59.405 22.509-91.205 23.608-1.231-26.025-20.925-47.306-46.261-51.038-6.352-18.64-24.237-31.889-44.49-31.889-1.463 0-2.927.068-4.384.204-9.976-16.862-28.111-27.384-48.169-27.384-16.245 0-31.644 7.175-42.175 19.188a219.368 219.368 0 01-17.004-27.905c-19.752-38.683-27.446-81.85-22.25-124.833.663-5.483-3.245-10.465-8.727-11.128a9.995 9.995 0 00-11.128 8.727c-5.675 46.947 2.726 94.089 24.294 136.329a239.511 239.511 0 0015.869 26.615c-14.637 7.215-24.731 22.279-24.731 39.656 0 1.781.104 3.547.31 5.289C6.435 426.825.007 441.381.007 456.593c0 30.248 24.64 54.856 54.927 54.856h137.164c23.795 0 44.047-15.37 51.355-36.681 35.65-.75 71.145-9.617 103.121-25.86 25.64-13.023 48.407-30.278 67.669-51.285a10.003 10.003 0 001.543-11.291 9.995 9.995 0 00-10.033-5.404c-70.492 7.934-140.439-19.048-187.191-71.104h156.45a38.267 38.267 0 0025.702-9.878zM192.099 491.45H54.935c-19.259 0-34.928-15.637-34.928-34.856 0-11.208 5.213-21.452 14.302-28.103a9.999 9.999 0 003.718-10.786 23.854 23.854 0 01-.872-6.476c0-13.34 10.875-24.194 24.242-24.194.542 0 1.083.025 1.625.048a10.001 10.001 0 009.015-4.886c6.453-10.868 18.32-17.619 30.971-17.619 14.685 0 27.764 8.765 33.322 22.328a10 10 0 0011.916 5.848 27.462 27.462 0 017.315-.997c13.219 0 24.676 9.806 26.651 22.81a10 10 0 009.887 8.499c18.9 0 34.276 15.345 34.276 34.206-.001 18.846-15.377 34.178-34.276 34.178zm-47.025-201.626c-10.21 0-18.516-8.278-18.516-18.453 0-10.174 8.306-18.452 18.516-18.452a10 10 0 009.374-13.482c-5.916-15.926-4.316-31.559 4.392-42.891 7.111-9.255 17.916-14.358 30.102-14.358 1.407 0 2.834.068 4.275.206a10.002 10.002 0 0010.774-8.08c3.719-19.481 20.878-33.62 40.802-33.62a41.602 41.602 0 0121.297 5.891c-12.92 10.831-20.752 27.012-20.752 44.266 0 5.523 4.477 10 10 10 5.522 0 10-4.477 10-10 0-14.478 8.453-27.8 21.554-34.053.103-.044.208-.082.31-.129 4.982-2.324 10.341-3.503 15.927-3.503 20.838 0 37.79 16.905 37.79 37.685 0 1.669-.105 3.331-.321 5.082a10 10 0 0014.968 9.861c6.818-3.982 15.063-3.647 21.002.851 6.27 4.749 8.406 13.096 5.859 22.9a9.999 9.999 0 004.206 10.883c7.69 5.03 12.282 13.447 12.282 22.516 0 8.431-3.89 16.217-10.671 21.362-.26.197-.509.406-.748.627a18.327 18.327 0 01-12.482 4.891zm142.218-220.6l29.784 16.212 16.221 29.715a9.998 9.998 0 008.773 5.208h.004a10 10 0 008.774-5.203l16.249-29.719 29.788-16.214a10.001 10.001 0 00-.006-17.57l-29.784-16.186-16.246-29.714A10 10 0 00342.075.55h-.004a10 10 0 00-8.773 5.208l-16.22 29.712-29.78 16.184a9.999 9.999 0 00-.006 17.57zm41.927-17.589a9.998 9.998 0 004.002-3.995l8.86-16.232 8.879 16.238a10.008 10.008 0 003.999 3.989l16.216 8.812-16.222 8.83a9.998 9.998 0 00-3.993 3.986l-8.879 16.238-8.86-16.232a10.008 10.008 0 00-3.996-3.992l-16.222-8.83zm177.562 87.812l-29.789-16.214-16.248-29.719a10.001 10.001 0 00-8.774-5.203h-.003a10 10 0 00-8.774 5.208l-16.221 29.715-29.785 16.212a10 10 0 00.007 17.57l29.78 16.184 16.219 29.711a9.999 9.999 0 008.774 5.208h.002c3.656 0 7.021-1.995 8.775-5.203L476.99 173.2l29.784-16.185a10 10 0 00.007-17.568zm-41.926 17.588a10.004 10.004 0 00-4 3.989l-8.878 16.238-8.86-16.232a9.995 9.995 0 00-4.003-3.995l-16.216-8.812 16.223-8.83a10.001 10.001 0 003.996-3.992l8.86-16.232 8.878 16.238a10.01 10.01 0 003.993 3.986l16.223 8.83z"/><path d="M16.698 175.526c1.453.739 3 1.089 4.526 1.089 3.643 0 7.156-1.999 8.921-5.468l.029-.057c2.504-4.923.529-10.915-4.394-13.418-4.922-2.504-10.957-.515-13.461 4.408s-.543 10.943 4.379 13.446z"/></svg>