<svg fill="#b3b3b3" id="Capa_1" height="512" width="512" xmlns="http://www.w3.org/2000/svg"><path d="M484 354.227c5.522 0 10-4.478 10-10V319.85c0-29.538-24.024-53.568-53.554-53.568h-30.083c5.036-12.668 8.195-25.223 9.344-37.174h11.812c17.248 0 31.281-14.035 31.281-31.287v-26.249c0-17.252-14.033-31.287-31.281-31.287h-13.055c-5.081-34.642-21.142-66.691-46.483-92.04C340.881 17.134 299.69 0 256 0c-43.703 0-84.901 17.134-116.006 48.244-25.343 25.347-41.406 57.397-46.487 92.04H80.48c-17.248 0-31.281 14.035-31.281 31.287v26.249c0 17.252 14.033 31.287 31.281 31.287h11.784c1.149 11.95 4.308 24.506 9.344 37.174H71.554C42.024 266.281 18 290.312 18 319.85v138.555C18 487.957 42.024 512 71.554 512h368.893C469.976 512 494 487.957 494 458.404v-24.35c0-5.522-4.478-10-10-10s-10 4.478-10 10v24.35C474 476.929 458.948 492 440.446 492H71.554C53.052 492 38 476.929 38 458.404V319.85c0-18.51 15.052-33.568 33.554-33.568h323.285l.034.002.029-.002h45.546c18.502 0 33.554 15.059 33.554 33.568v24.377c-.002 5.522 4.476 10 9.998 10zm-41.199-182.656v26.249c0 6.224-5.061 11.287-11.281 11.287h-11.31v-44.849c0-1.327-.017-2.652-.049-3.975h11.358c6.221.001 11.282 5.065 11.282 11.288zM256 20c66.165 0 122.057 44.808 138.966 105.68-31.884-17.954-60.491-4.568-86.279 7.505-16.858 7.894-34.292 16.056-52.687 16.056s-35.828-8.162-52.687-16.056c-25.798-12.079-54.416-25.468-86.311-7.488C133.909 64.816 189.816 20 256 20zM69.199 197.82v-26.249c0-6.224 5.061-11.287 11.281-11.287h11.33a169.606 169.606 0 00-.049 3.975v44.849H80.48c-6.22-.001-11.281-5.064-11.281-11.288zm42.563 21.287v-54.849c0-3.391.127-6.752.358-10.086 13.237-12.434 25.951-17.925 39.788-17.214 13.799.702 27.946 7.326 42.925 14.34 18.841 8.821 38.323 17.942 61.168 17.942s42.327-9.121 61.168-17.942c14.979-7.014 29.126-13.638 42.925-14.34 13.826-.708 26.532 4.771 39.757 17.185.233 3.343.36 6.714.36 10.115v54.849c0 14.516-4.005 30.72-11.603 47.174H123.365c-7.598-16.453-11.603-32.658-11.603-47.174z"/><path d="M222.894 205.753l-65.317-28.629c-5.057-2.214-10.956.086-13.174 5.145-2.217 5.059.087 10.956 5.145 13.174l32.751 14.355v23.852c0 5.522 4.478 10 10 10s10-4.478 10-10v-15.086l12.566 5.508a9.98 9.98 0 004.01.844c3.85 0 7.52-2.236 9.164-5.988 2.216-5.06-.088-10.957-5.145-13.175zm144.704-23.482c-2.216-5.059-8.115-7.363-13.172-5.146l-65.346 28.629c-5.059 2.216-7.363 8.113-5.146 13.172a10 10 0 009.164 5.99c1.34 0 2.702-.271 4.008-.844l12.597-5.519v15.097c0 5.522 4.478 10 10 10s10-4.478 10-10v-23.86l32.749-14.348c5.058-2.215 7.362-8.113 5.146-13.171zM91.132 324.3c0-5.522-4.478-10-10-10s-10 4.478-10 10v84.329c0 5.522 4.478 10 10 10s10-4.478 10-10zm-10 119.654c-5.522 0-10 4.478-10 10v.057c0 5.522 4.478 9.972 10 9.972s10-4.506 10-10.028-4.478-10.001-10-10.001zm197.762-86.036v-9.411c0-18.861-15.342-34.207-34.2-34.207-18.842 0-34.171 15.346-34.171 34.207v9.411c0 5.522 4.478 10 10 10s10-4.478 10-10v-9.411c0-7.834 6.357-14.207 14.171-14.207 7.83 0 14.2 6.373 14.2 14.207v9.411c0 2.492-3.604 6.802-6.785 10.604-5.41 6.469-12.145 14.521-12.145 25.253v14.854c0 5.522 4.478 10 10 10s10-4.478 10-10v-14.854c0-3.471 3.806-8.021 7.486-12.422 5.364-6.413 11.444-13.681 11.444-23.435zm-28.902 86.008c-5.522 0-10 4.478-10 10v.057c0 5.522 4.478 9.972 10 9.972s10-4.506 10-10.028-4.477-10.001-10-10.001zm-99.888-88.537h23.265c5.522 0 10-4.478 10-10s-4.478-10-10-10h-12.572l.015-11.075c.008-5.523-4.464-10.006-9.986-10.014h-.014c-5.517 0-9.992 4.469-10 9.986l-.017 12.494c-13.033 3.992-22.539 16.137-22.539 30.463 0 17.581 14.287 31.884 31.848 31.884h1.587c6.33 0 11.678 5.429 11.678 11.854 0 6.536-5.314 11.854-11.848 11.854h-23.265c-5.522 0-10 4.478-10 10s4.478 10 10 10h12.556v11.09c0 5.522 4.478 10 10 10s10-4.478 10-10v-12.476c13.042-3.987 22.557-16.135 22.557-30.468 0-17.564-14.211-31.854-31.678-31.854h-1.587c-6.533 0-11.848-5.331-11.848-11.884.001-6.536 5.315-11.854 11.848-11.854zm280.821 14.144c5.522 0 10-4.478 10-10s-4.478-10-10-10h-9.983l4.344-23.439c1.006-5.431-2.58-10.648-8.011-11.655-5.424-.992-10.648 2.58-11.655 8.011l-5.02 27.084h-39.569l4.349-23.438c1.008-5.43-2.577-10.648-8.008-11.656-5.429-1.01-10.649 2.577-11.656 8.008l-5.026 27.086h-15.774c-5.522 0-10 4.478-10 10s4.478 10 10 10h12.063l-7.261 39.13h-13.672c-5.522 0-10 4.478-10 10s4.478 10 10 10h9.961l-4.349 23.438c-1.008 5.43 2.577 10.648 8.008 11.656.616.114 1.23.17 1.836.17 4.725 0 8.928-3.364 9.82-8.178l5.026-27.087h39.586l-4.344 23.44c-1.006 5.431 2.58 10.648 8.011 11.655a10.16 10.16 0 001.834.169c4.726 0 8.929-3.365 9.821-8.18l5.02-27.085h15.78c5.522 0 10-4.478 10-10s-4.478-10-10-10h-12.073l7.252-39.13h13.69zm-41.284 39.13h-39.582l7.26-39.13h39.574z"/></svg>