<svg fill="#b3b3b3" xmlns="http://www.w3.org/2000/svg" version="1.1" id="Capa_1" x="0" y="0" viewBox="0 0 512.001 512.001" xml:space="preserve" width="512" height="512"><path d="M172.498 153.92h.007c5.523 0 9.996-4.477 9.996-10s-4.48-10-10.003-10-10 4.477-10 10 4.477 10 10 10zm67 0h.007c5.523 0 9.996-4.477 9.996-10s-4.48-10-10.003-10-10 4.477-10 10 4.477 10 10 10z"/><path d="M166.002 183.92h80c22.056 0 40-17.944 40-40s-17.944-40-40-40h-80c-22.056 0-40 17.944-40 40s17.944 40 40 40zm0-60h80c11.028 0 20 8.972 20 20s-8.972 20-20 20h-80c-11.028 0-20-8.972-20-20s8.972-20 20-20zm233.192 274.268l-14.545-6.025a5.697 5.697 0 01-3.09-3.115c-.591-1.428-.598-2.986-.017-4.388s1.687-2.499 3.115-3.091c1.428-.591 2.986-.599 4.388-.017l7.272 3.012c5.103 2.114 10.952-.31 13.065-5.412s-.31-10.952-5.412-13.065l-5.876-2.434v-.832c0-5.523-4.477-10-10-10-5.471 0-9.909 4.395-9.992 9.846-.368.134-.735.274-1.1.425-6.364 2.636-11.314 7.578-13.938 13.914-2.626 6.337-2.619 13.332.017 19.696 2.636 6.364 7.578 11.314 13.914 13.938l14.545 6.025c2.876 1.191 4.299 4.628 3.108 7.503-1.191 2.876-4.628 4.301-7.503 3.109l-7.272-3.013c-5.1-2.114-10.952.309-13.065 5.411-2.114 5.103.309 10.952 5.411 13.066l5.876 2.435v.832c0 5.523 4.477 10 10 10 5.472 0 9.911-4.397 9.992-9.85 6.569-2.378 12.161-7.388 15.039-14.335 5.431-13.115-.819-28.203-13.932-33.635z"/><path d="M467.937 342.689c-9.918-18.163-23.956-31.133-41.44-38.548l11.51-43.242a9.999 9.999 0 00-7.702-12.377c-34.81-6.962-60.885-4.88-83.876-1.593a10 10 0 00-8.01 13.241l9.833 27.737c-5.972-3.272-12.727-5.792-20.094-7.419l-78.656-17.371v-8.663c37.1-16.668 63.001-53.967 63.001-97.204V106.5c0-58.724-47.776-106.5-106.5-106.5a105.45 105.45 0 00-37.308 6.786c-5.168 1.947-7.779 7.715-5.833 12.883 1.947 5.168 7.717 7.78 12.883 5.833a85.537 85.537 0 0130.257-5.501c47.696 0 86.5 38.804 86.5 86.5v50.749c0 36.913-23.244 68.493-55.861 80.889a9.76 9.76 0 00-1.224.458 86.106 86.106 0 01-29.415 5.153 86.1 86.1 0 01-29.418-5.154 9.792 9.792 0 00-1.22-.456c-32.619-12.396-55.863-43.977-55.863-80.89V106.5a85.515 85.515 0 015.504-30.263c1.948-5.168-.663-10.937-5.831-12.884-5.167-1.946-10.936.662-12.884 5.831A105.44 105.44 0 0099.5 106.5v50.749c0 43.237 25.901 80.536 63 97.204v8.663l-78.658 17.371c-28.252 6.24-46.128 24.586-47.819 49.076l-10 144.853A9.997 9.997 0 0036 485.105h163.006c5.523 0 10-4.477 10-10s-4.477-10-10-10h-92.288l3.761-54.369c.381-5.509-3.776-10.285-9.286-10.666-5.504-.38-10.285 3.777-10.666 9.286l-3.856 55.749H46.715l9.263-134.164c1.507-21.829 23.006-28.898 32.18-30.924l76.302-16.851c5.514 17.7 22.052 30.586 41.543 30.586s36.029-12.886 41.543-30.586l76.3 16.851c7.189 1.588 13.467 4.219 18.506 7.678-14.101 7.713-25.61 19.451-34.098 34.996-14.93 27.342-18.064 61.788-18.064 85.87 0 13.753 2.421 25.97 7.062 36.545h-18.244c-5.523 0-10 4.477-10 10s4.477 10 10 10h31.482c16.615 17.476 42.999 26.897 77.606 26.897 62.22 0 97.906-30.414 97.906-83.442-.001-24.084-3.135-58.53-18.065-85.872zM206.002 293.75c-12.958 0-23.5-10.542-23.5-23.5v-9.12a106.46 106.46 0 0023.5 2.618c8.073 0 15.936-.908 23.5-2.618v9.12c0 12.958-10.542 23.5-23.5 23.5zm209.881-27.481l-8.574 32.209c-6.104-1.096-12.515-1.651-19.214-1.651-5.213 0-10.247.346-15.102 1.011l-11.573-32.645c17.209-1.836 34.2-2.048 54.463 1.076zm28.471 211.148c-13.058 9.542-32.512 14.584-56.259 14.584s-43.202-5.043-56.259-14.584c-14.364-10.495-21.647-26.934-21.647-48.858 0-50.972 13.516-111.732 77.906-111.732s77.906 60.761 77.906 111.732c0 21.924-7.283 38.363-21.647 48.858z"/><path d="M239.01 465.104h-.008c-5.523 0-9.996 4.477-9.996 10s4.481 10 10.004 10 10-4.477 10-10-4.477-10-10-10zM137.771 48.26a9.965 9.965 0 006.727-2.602c4.086-3.715 4.388-10.04.673-14.126-3.715-4.087-10.04-4.388-14.126-.673l-.005.005c-4.086 3.715-4.385 10.037-.67 14.124a9.966 9.966 0 007.401 3.272z"/></svg>