<svg fill="#b3b3b3" version="1.1" id="Capa_1" xmlns="http://www.w3.org/2000/svg" x="0" y="0" width="512" height="512" xml:space="preserve"><path d="M494.005 0H283.494c-9.922 0-17.995 8.072-17.995 17.994v114.743l-10.963 80.083c-1.051 7.679 7.075 13.708 14.132 10.421l60.783-28.317h164.555c9.922 0 17.995-8.072 17.995-17.994V17.994C512 8.072 503.928 0 494.005 0zm-2.006 174.923H327.235a9.986 9.986 0 00-4.223.936l-46.173 21.511 8.569-62.595c.062-.449.092-.902.092-1.356V20h206.499v154.923z"/><path d="M430.307 65.41h24.436c5.523 0 10.001-4.477 10.001-10s-4.477-10-10.001-10h-24.436c-5.523 0-10.001 4.477-10.001 10s4.478 10 10.001 10zm-107.58 0h67.298c5.523 0 10.001-4.477 10.001-10s-4.477-10-10.001-10h-67.298c-5.523 0-10.001 4.477-10.001 10s4.478 10 10.001 10zm132.016 22.037h-75.632c-5.523 0-10.001 4.477-10.001 10s4.477 10 10.001 10h75.632c5.523 0 10.001-4.477 10.001-10s-4.477-10-10.001-10zm-132.016 20h16.045c5.523 0 10.001-4.477 10.001-10s-4.477-10-10.001-10h-16.045c-5.523 0-10.001 4.477-10.001 10s4.478 10 10.001 10zm132.016 22.037h-37.164c-5.523 0-10.001 4.477-10.001 10s4.477 10 10.001 10h37.164c5.523 0 10.001-4.477 10.001-10s-4.477-10-10.001-10zm-132.016 20h54.598c5.523 0 10.001-4.477 10.001-10s-4.477-10-10.001-10h-54.598c-5.523 0-10.001 4.477-10.001 10s4.478 10 10.001 10zm178.057 107.699c-14.922-14.882-39.201-14.883-54.142.018-12.44 12.471-14.474 31.476-6.108 46.104l-32.854 32.851c-32.779-30.026-73.883-49.802-118.439-56.409v-5.535c0-10.954-8.912-19.865-19.865-19.865h-26.817c-10.954 0-19.865 8.911-19.865 19.865v5.527c-44.268 6.576-85.413 26.251-118.394 56.437l-32.877-32.854c3.31-5.74 5.082-12.264 5.082-19.062 0-10.22-3.985-19.833-11.221-27.069-14.919-14.917-39.195-14.917-54.113 0l-.009.009c-14.884 14.921-14.884 39.2.009 54.129 7.223 7.222 16.832 11.199 27.057 11.199 6.797 0 13.317-1.767 19.05-5.067l32.879 32.856a225.285 225.285 0 00-22.381 28.803 224.086 224.086 0 00-17.29 31.779 224.136 224.136 0 00-18.22 69.489c-.645 6.718-1.021 13.479-1.038 20.229-.008 2.955.511 5.756 2.533 8.024a10.056 10.056 0 007.471 3.357h429.499c5.523 0 10.001-4.477 10.001-10 0-13.405-1.208-26.896-3.589-40.099-.981-5.436-6.185-9.046-11.617-8.066-5.435.98-9.047 6.181-8.067 11.616a206.566 206.566 0 013.027 26.549h-116.39v-36.317c0-5.523-4.477-10-10.001-10H177.869c-5.523 0-10.001 4.477-10.001 10V492H51.472c4.629-96.628 75.987-176.554 171.222-192.024v9.215c0 10.954 8.912 19.865 19.865 19.865h26.817c10.954 0 19.865-8.911 19.865-19.865v-9.223c55.315 9.025 104.547 40.411 136.33 87.313a9.989 9.989 0 008.288 4.391c1.93 0 3.882-.558 5.601-1.723 4.572-3.098 5.767-9.316 2.669-13.888a226.593 226.593 0 00-20.328-25.742l32.872-32.87a38.346 38.346 0 0019.042 5.049c9.805 0 19.615-3.726 27.086-11.178 14.884-14.92 14.884-39.199 0-54.12l-.017-.017zM51.141 297.188a18.142 18.142 0 01-12.913 5.341c-4.883 0-9.469-1.897-12.905-5.332-7.115-7.132-7.116-18.737-.002-25.87 7.121-7.111 18.703-7.11 25.82.007 3.459 3.458 5.363 8.049 5.363 12.927s-1.904 9.469-5.363 12.927zM292.02 465.683h32.074V492H292.02v-26.317zm-52.075 0h32.074V492h-32.074v-26.317zm-52.075 0h32.074V492H187.87v-26.317zm81.371-156.627h-26.546v-34.708h26.546v34.708zm217.418-11.877c-7.134 7.115-18.74 7.115-25.856.018-7.115-7.133-7.115-18.739-.018-25.854 3.567-3.558 8.251-5.336 12.937-5.336 4.68 0 9.362 1.776 12.927 5.327 7.107 7.134 7.104 18.733.01 25.845z"/><path d="M148.819 379.234c0 18.799 15.295 34.094 34.096 34.094s34.097-15.294 34.097-34.094c0-18.815-15.296-34.123-34.097-34.123s-34.096 15.307-34.096 34.123zm48.192 0c0 7.771-6.323 14.094-14.096 14.094-7.772 0-14.095-6.322-14.095-14.094 0-7.787 6.323-14.123 14.095-14.123 7.773 0 14.096 6.336 14.096 14.123zm99.132 0c0 18.799 15.295 34.094 34.096 34.094s34.097-15.294 34.097-34.094c0-18.815-15.296-34.123-34.097-34.123s-34.096 15.307-34.096 34.123zm48.192 0c0 7.771-6.323 14.094-14.096 14.094-7.772 0-14.095-6.322-14.095-14.094 0-7.787 6.323-14.123 14.095-14.123 7.773 0 14.096 6.336 14.096 14.123zm106.049 32.667c-4.94 2.47-6.942 8.477-4.472 13.417l.028.057a9.952 9.952 0 008.919 5.507 10.01 10.01 0 004.484-1.063c4.94-2.47 6.928-8.505 4.458-13.445-2.469-4.94-8.475-6.942-13.417-4.473z"/></svg>