<svg fill="#b3b3b3" height="512pt" viewBox="0 0 512 512" width="512pt" xmlns="http://www.w3.org/2000/svg"><path d="M437.02 74.98C388.668 26.63 324.379 0 256 0c-52.031 0-102.125 15.535-144.867 44.922-4.551 3.133-5.703 9.355-2.574 13.906 3.128 4.555 9.355 5.703 13.906 2.574C161.855 34.316 208.03 20 256 20c130.129 0 236 105.871 236 236S386.129 492 256 492 20 386.129 20 256c0-47.973 14.316-94.145 41.398-133.531a9.996 9.996 0 00-2.574-13.903c-4.547-3.129-10.773-1.98-13.906 2.57C15.531 153.872 0 203.966 0 256c0 68.379 26.629 132.668 74.98 181.02C123.332 485.37 187.621 512 256 512s132.668-26.629 181.02-74.98C485.37 388.668 512 324.379 512 256s-26.629-132.668-74.98-181.02zm0 0"/><path d="M75.648 89.738a9.964 9.964 0 006.395 2.317 9.986 9.986 0 007.691-3.602c3.536-4.242 2.961-10.547-1.28-14.086-4.24-3.531-10.548-2.96-14.087 1.281l-.004.008c-3.535 4.242-2.957 10.547 1.285 14.082zm196.344 280.965c-5.312 4.555-8.82 7.563-15.992 7.563s-10.68-3.008-15.992-7.563c-6.434-5.512-14.438-12.375-29.008-12.375s-22.574 6.863-29.008 12.375c-5.312 4.555-8.82 7.563-15.992 7.563-5.523 0-10 4.476-10 10 0 5.52 4.477 10 10 10 14.57 0 22.578-6.864 29.008-12.38 5.312-4.55 8.82-7.558 15.992-7.558s10.68 3.008 15.992 7.559c6.434 5.515 14.438 12.379 29.008 12.379s22.574-6.864 29.008-12.38c5.312-4.55 8.82-7.558 15.992-7.558s10.68 3.008 15.992 7.559c6.43 5.515 14.438 12.379 29.008 12.379 5.523 0 10-4.48 10-10 0-5.524-4.477-10-10-10-7.172 0-10.68-3.008-15.992-7.563-6.434-5.512-14.438-12.375-29.008-12.375s-22.574 6.863-29.008 12.375zm86.082-151.773c-3.906-3.907-10.238-3.907-14.144 0l-30 30c-3.903 3.906-3.903 10.234 0 14.14l30 30A9.968 9.968 0 00351 296a9.97 9.97 0 007.074-2.93c3.903-3.902 3.903-10.234 0-14.14L335.144 256l22.93-22.93c3.906-3.902 3.906-10.234 0-14.14zm-204.148 74.14c1.953 1.953 4.512 2.93 7.07 2.93s5.121-.977 7.07-2.93l30-30c3.907-3.902 3.907-10.234 0-14.14l-30-30c-3.902-3.907-10.234-3.907-14.14 0s-3.906 10.238 0 14.14l22.93 22.93-22.93 22.93c-3.906 3.902-3.906 10.234 0 14.14zm0 0"/></svg>