<svg fill="#b3b3b3" height="512" viewBox="0 0 64 64" width="512" xmlns="http://www.w3.org/2000/svg"><g id="Telephone"><path d="M43.071 40.728a3 3 0 00-4.243 0l-4.242 4.243a7.01 7.01 0 01-9.9 0l-5.657-5.657a7.009 7.009 0 010-9.9l4.243-4.242a3 3 0 000-4.243l-8.485-8.485a3.071 3.071 0 00-4.243 0l-2.828 2.828a19.022 19.022 0 000 26.87l14.142 14.142a19 19 0 0026.87 0l2.829-2.828a3.005 3.005 0 000-4.243zm-31.112-26.87a1.023 1.023 0 011.414 0l8.485 8.486a1 1 0 010 1.413l-2.122 2.122-9.9-9.9zM23.272 54.87L9.13 40.728a17.023 17.023 0 01-.687-23.314l9.879 9.879-.707.707a9.01 9.01 0 000 12.728l5.657 5.657a9.01 9.01 0 0012.728 0l.707-.707 9.879 9.879a17.023 17.023 0 01-23.314-.687zm26.871-2.828l-2.122 2.121-9.9-9.9 2.121-2.122a1 1 0 011.415 0l8.486 8.485a1 1 0 010 1.416z"/><path d="M61 10h-8.026A4.948 4.948 0 0054 7a4.985 4.985 0 00-9-2.969A4.981 4.981 0 1037.026 10H29a1 1 0 00-1 1v8a1 1 0 001 1h2v17a1 1 0 001 1h26a1 1 0 001-1V20h2a1 1 0 001-1v-8a1 1 0 00-1-1zM46 7a3 3 0 113 3h-3zm-5 29h-8V20h8zm0-18H30v-6h11zM38 7a3 3 0 016 0v3h-3a3 3 0 01-3-3zm9 29h-4V12h4zm10 0h-8V20h8zm3-18H49v-6h11z"/></g></svg>